<svg xmlns="http://www.w3.org/2000/svg" viewBox="0 0 1205.88 627.59"><defs><style>.cls-1{font-size:55px;}.cls-1,.cls-21,.cls-27,.cls-28,.cls-4{fill:#fff;}.cls-1,.cls-13,.cls-14,.cls-21,.cls-23,.cls-27,.cls-28,.cls-4,.cls-5{font-family:Montserrat-Medium, Montserrat;font-weight:500;}.cls-1,.cls-14,.cls-4,.cls-6{letter-spacing:0.07em;}.cls-2{letter-spacing:0.07em;}.cls-3{letter-spacing:0.07em;}.cls-13,.cls-14,.cls-21,.cls-23,.cls-27,.cls-28,.cls-4,.cls-5{font-size:30px;}.cls-13,.cls-14,.cls-23,.cls-5{fill:#c40000;}.cls-5{letter-spacing:0.05em;}.cls-7{letter-spacing:0.06em;}.cls-8{letter-spacing:0.06em;}.cls-28,.cls-9{letter-spacing:0.06em;}.cls-10{letter-spacing:0.08em;}.cls-11{letter-spacing:0.06em;}.cls-12,.cls-21{letter-spacing:0.07em;}.cls-13{letter-spacing:0.06em;}.cls-15{letter-spacing:0.08em;}.cls-16{letter-spacing:0.07em;}.cls-17{letter-spacing:0.07em;}.cls-18{letter-spacing:0.06em;}.cls-19{letter-spacing:0.07em;}.cls-20{letter-spacing:0.07em;}.cls-22{letter-spacing:0.09em;}.cls-23,.cls-29{letter-spacing:0.07em;}.cls-24{letter-spacing:0.05em;}.cls-25{letter-spacing:0.06em;}.cls-26{letter-spacing:0.16em;}.cls-27{letter-spacing:0.06em;}.cls-30{letter-spacing:0.09em;}</style></defs><g id="Layer_2" data-name="Layer 2"><g id="Layer_1-2" data-name="Layer 1"><text class="cls-1" transform="translate(389.81 46.75)">OUR A<tspan class="cls-2" x="205.37" y="0">R</tspan><tspan x="248.93" y="0">TI</tspan><tspan class="cls-2" x="306.51" y="0">S</tspan><tspan class="cls-3" x="344.24" y="0">T</tspan><tspan x="380.16" y="0">S</tspan></text><text class="cls-4" transform="translate(3.18 179.7)">Ana Lilia</text><text class="cls-5" transform="translate(0 252)">K<tspan class="cls-6" x="23.13" y="0">o</tspan><tspan class="cls-7" x="44.43" y="0">r</tspan><tspan class="cls-6" x="58.62" y="0">ol</tspan><tspan class="cls-8" x="90.54" y="0">o</tspan><tspan class="cls-9" x="111.39" y="0">v</tspan><tspan class="cls-10" x="129.9" y="0">a</tspan></text><text class="cls-4" transform="translate(3.18 324.74)">Ai<tspan class="cls-11" x="34.83" y="0">w</tspan><tspan x="63.54" y="0">as</tspan><tspan class="cls-12" x="101.01" y="0">k</tspan><tspan class="cls-10" x="121.44" y="0">a</tspan></text><text class="cls-13" transform="translate(0 397.49)">F<tspan class="cls-10" x="20.73" y="0">atima Hajji</tspan></text><text class="cls-14" transform="translate(3.18 476.06)">A<tspan class="cls-15" x="24.21" y="0">m</tspan><tspan class="cls-16" x="58.26" y="0">elie </tspan><tspan class="cls-17" x="131.04" y="0">L</tspan><tspan x="150.9" y="0">ens</tspan></text><text class="cls-4" transform="translate(534.27 179.7)">D<tspan class="cls-7" x="27.03" y="0">r</tspan><tspan x="41.22" y="0">opl</tspan><tspan class="cls-8" x="95.85" y="0">e</tspan><tspan x="116.01" y="0">x</tspan></text><text class="cls-4" transform="translate(462.5 250.93)">S<tspan class="cls-18" x="20.88" y="0">t</tspan><tspan class="cls-16" x="35.01" y="0">e</tspan><tspan class="cls-12" x="55.62" y="0">f</tspan><tspan class="cls-10" x="68.16" y="0">a</tspan><tspan class="cls-15" x="88.35" y="0">n</tspan><tspan x="111.12" y="0">o No</tspan><tspan class="cls-19" x="190.65" y="0">f</tspan><tspan x="203.25" y="0">e</tspan><tspan class="cls-20" x="223.86" y="0">r</tspan><tspan x="238.2" y="0">ini</tspan></text><text class="cls-4" transform="translate(473.96 325.64)">Al<tspan class="cls-8" x="34.83" y="0">e</tspan><tspan class="cls-12" x="54.99" y="0">x</tspan><tspan class="cls-10" x="73.5" y="0">a</tspan><tspan class="cls-15" x="93.69" y="0">n</tspan><tspan x="116.46" y="0">der Alar</tspan></text><text class="cls-14" transform="translate(483.21 396.73)">Miss Monique</text><text class="cls-4" transform="translate(1094.91 179.7)">H<tspan class="cls-19" x="26.61" y="0">o</tspan><tspan x="47.67" y="0">z</tspan><tspan class="cls-15" x="65.55" y="0">h</tspan><tspan x="88.32" y="0">o</tspan></text><text class="cls-4" transform="translate(1058.64 251.23)">Bull<tspan class="cls-19" x="68.76" y="0">z</tspan><tspan class="cls-12" x="86.4" y="0">e</tspan><tspan class="cls-8" x="106.71" y="0">y</tspan><tspan x="125.28" y="0">e</tspan></text><text class="cls-21" transform="translate(1060.32 323.56)">S<tspan class="cls-20" x="20.58" y="0">y</tspan><tspan class="cls-10" x="39.39" y="0">s</tspan><tspan class="cls-18" x="56.67" y="0">t</tspan><tspan class="cls-16" x="70.8" y="0">ema</tspan></text><text class="cls-4" transform="translate(984.15 397.36)">Noemi Bl<tspan class="cls-15" x="159" y="0">a</tspan><tspan class="cls-20" x="179.28" y="0">c</tspan><tspan class="cls-10" x="198.45" y="0">k</tspan></text><text class="cls-14" transform="translate(987.9 475.9)">Bloody Ma<tspan class="cls-22" x="181.32" y="0">r</tspan><tspan x="196.32" y="0">y</tspan></text><text class="cls-23" transform="translate(1.71 548.36)">C<tspan class="cls-6" x="23.73" y="0">a</tspan><tspan class="cls-20" x="43.92" y="0">r</tspan><tspan class="cls-6" x="58.26" y="0">l </tspan><tspan class="cls-24" x="79.2" y="0">C</tspan><tspan class="cls-25" x="102.48" y="0">o</tspan><tspan class="cls-6" x="123.24" y="0">x</tspan></text><text class="cls-14" transform="translate(2.31 619.7)">999999999</text><text class="cls-14" transform="translate(954.93 547.7)">Nils Hof<tspan class="cls-26" x="136.2" y="0">f</tspan><tspan x="151.44" y="0">mann</tspan></text><text class="cls-27" transform="translate(493.28 476.51)">P<tspan class="cls-12" x="23.46" y="0">a</tspan><tspan class="cls-8" x="43.35" y="0">v</tspan><tspan class="cls-6" x="61.92" y="0">el </tspan><tspan class="cls-7" x="103.47" y="0">P</tspan><tspan class="cls-6" x="127.02" y="0">et</tspan><tspan class="cls-7" x="162.3" y="0">r</tspan><tspan class="cls-8" x="176.49" y="0">o</tspan><tspan class="cls-6" x="197.34" y="0">v</tspan></text><text class="cls-28" transform="translate(448.94 548.1)">F<tspan class="cls-16" x="20.79" y="0">e</tspan><tspan class="cls-29" x="41.4" y="0">r</tspan><tspan class="cls-6" x="55.74" y="0">na</tspan><tspan class="cls-15" x="98.61" y="0">n</tspan><tspan class="cls-6" x="121.38" y="0">da Ma</tspan><tspan class="cls-30" x="225.69" y="0">r</tspan><tspan class="cls-6" x="240.69" y="0">tins</tspan></text><text class="cls-27" transform="translate(559.98 619.7)">P<tspan class="cls-6" x="23.46" y="0">aaji</tspan></text></g></g></svg>