<svg xmlns="http://www.w3.org/2000/svg" viewBox="0 0 35.3 24.84"><defs><style>.cls-1{fill:#c40000;}</style></defs><g id="Layer_2" data-name="Layer 2"><g id="Layer_1-2" data-name="Layer 1"><path class="cls-1" d="M17.71,0H31.37a3.59,3.59,0,0,1,3.92,3.91q0,8.49,0,17a3.67,3.67,0,0,1-3.93,3.94q-13.72,0-27.44,0A3.64,3.64,0,0,1,0,21Q0,12.4,0,3.8A3.55,3.55,0,0,1,3.83,0C8.45,0,13.08,0,17.71,0Zm-16,4.84c0,5.42,0,10.58,0,15.74,0,1.83.67,2.49,2.53,2.49H31c1.93,0,2.57-.64,2.57-2.55q0-7.53,0-15.07a1.41,1.41,0,0,0-.15-1l-.69.44q-5.53,3.91-11.07,7.84c-2.48,1.77-4.41,1.86-7,.24L5.11,7Zm16-3.07H4a2.21,2.21,0,0,0-1.61.42c-.4.37-.61.64,0,1,4.49,2.8,9,5.65,13.47,8.42a3.72,3.72,0,0,0,4.4,0c4-2.88,8.06-5.72,12.08-8.59.25-.17.7-.29.62-.62s-.53-.55-.93-.6a7.48,7.48,0,0,0-1,0Z"/></g></g></svg>