<svg xmlns="http://www.w3.org/2000/svg" viewBox="0 0 30.04 21"><defs><style>.cls-1{fill:#c40000;}</style></defs><g id="Layer_2" data-name="Layer 2"><g id="Layer_1-2" data-name="Layer 1"><path class="cls-1" d="M15,21c-2.72,0-5.44,0-8.16,0A6.58,6.58,0,0,1,0,14.16q0-3.73,0-7.47A6.43,6.43,0,0,1,6.35.07C12.15,0,18,0,23.74.06A6.44,6.44,0,0,1,30,6.5c0,2.63,0,5.27,0,7.9A6.54,6.54,0,0,1,23.4,21C20.59,21,17.78,21,15,21ZM11.26,10.57c0,1,0,2.1,0,3.15s.56,1.43,1.51,1c2.35-1.12,4.67-2.3,7-3.44.58-.28.51-.58.06-.88s-.91-.52-1.37-.77c-1.85-1-3.69-2-5.55-3-1.06-.56-1.65-.22-1.66.92S11.25,9.54,11.26,10.57Z"/></g></g></svg>