<svg xmlns="http://www.w3.org/2000/svg" viewBox="0 0 21.26 21.25"><defs><style>.cls-1{fill:#fff;}</style></defs><g id="Layer_2" data-name="Layer 2"><g id="Layer_1-2" data-name="Layer 1"><path class="cls-1" d="M15.82,21.25H5.45a.48.48,0,0,0-.2,0,5.15,5.15,0,0,1-1.68-.44A5.73,5.73,0,0,1,0,15.36C0,12.21,0,9.05,0,5.9A5.58,5.58,0,0,1,.76,3,5.76,5.76,0,0,1,6,0c3.1,0,6.2,0,9.29,0a5.31,5.31,0,0,1,1.2.11,5.81,5.81,0,0,1,4.61,4.37c.09.32.1.64.17,1V15.81c0,.22-.06.44-.11.65a5.81,5.81,0,0,1-4.37,4.62C16.46,21.17,16.14,21.18,15.82,21.25ZM10.65,1.89H6A4.29,4.29,0,0,0,4.6,2.1,4,4,0,0,0,1.9,6c0,3.1,0,6.19,0,9.29a4.12,4.12,0,0,0,.21,1.39A4,4,0,0,0,6,19.36q4.65,0,9.3,0a4.06,4.06,0,0,0,1.38-.21,4,4,0,0,0,2.71-3.85q0-4.67,0-9.35a3.88,3.88,0,0,0-1.7-3.33,3.93,3.93,0,0,0-2.42-.73Z"/><path class="cls-1" d="M16.11,10.63a5.48,5.48,0,1,1-5.48-5.48A5.49,5.49,0,0,1,16.11,10.63ZM10.62,7a3.59,3.59,0,1,0,3.6,3.58A3.59,3.59,0,0,0,10.62,7Z"/><path class="cls-1" d="M16.35,6.31a1.38,1.38,0,1,1,1.37-1.37A1.38,1.38,0,0,1,16.35,6.31Z"/></g></g></svg>