<svg xmlns="http://www.w3.org/2000/svg" viewBox="0 0 29.01 29"><defs><style>.cls-1{fill:#c40000;}</style></defs><g id="Layer_2" data-name="Layer 2"><g id="Layer_1-2" data-name="Layer 1"><path class="cls-1" d="M21.59,29H7.44A.56.56,0,0,0,7.16,29a7.25,7.25,0,0,1-2.29-.6A7.83,7.83,0,0,1,0,21C0,16.66,0,12.35,0,8.05A7.64,7.64,0,0,1,1,4.12,7.87,7.87,0,0,1,8.17,0c4.23,0,8.46,0,12.69,0a7.43,7.43,0,0,1,1.63.14,7.92,7.92,0,0,1,6.29,6c.12.43.13.87.23,1.3V21.58c-.05.3-.08.6-.14.89a8,8,0,0,1-6,6.3C22.47,28.89,22,28.9,21.59,29ZM14.53,2.58c-2.1,0-4.2,0-6.31,0a5.82,5.82,0,0,0-1.94.29A5.41,5.41,0,0,0,2.59,8.16c0,4.23,0,8.46,0,12.68a5.49,5.49,0,0,0,.29,1.89,5.43,5.43,0,0,0,5.29,3.7H20.85a5.53,5.53,0,0,0,1.89-.29,5.38,5.38,0,0,0,3.69-5.25q0-6.39,0-12.77a5.46,5.46,0,0,0-5.62-5.54Z"/><path class="cls-1" d="M22,14.5A7.47,7.47,0,1,1,14.51,7,7.49,7.49,0,0,1,22,14.5ZM14.5,9.61a4.9,4.9,0,1,0,4.91,4.88A4.9,4.9,0,0,0,14.5,9.61Z"/><path class="cls-1" d="M22.31,8.62a1.88,1.88,0,1,1,1.87-1.88A1.9,1.9,0,0,1,22.31,8.62Z"/></g></g></svg>