<svg xmlns="http://www.w3.org/2000/svg" viewBox="0 0 1213.63 175.73"><defs><style>.cls-1{font-size:20px;fill:#c40000;font-family:Montserrat-Medium, Montserrat;font-weight:500;}.cls-2{letter-spacing:-0.01em;}.cls-3{letter-spacing:-0.02em;}.cls-4{letter-spacing:-0.01em;}.cls-5{letter-spacing:-0.01em;}.cls-6{letter-spacing:-0.04em;}.cls-7{letter-spacing:-0.01em;}.cls-8{letter-spacing:0em;}.cls-9{letter-spacing:-0.01em;}.cls-10{letter-spacing:-0.01em;}.cls-11{letter-spacing:0em;}.cls-12{letter-spacing:-0.01em;}.cls-13{letter-spacing:-0.01em;}.cls-14{letter-spacing:-0.02em;}.cls-15{fill:#fff;}.cls-16,.cls-17{fill:none;stroke:#000;stroke-miterlimit:10;}.cls-17{stroke-width:0.5px;}</style></defs><g id="Layer_2" data-name="Layer 2"><g id="Layer_1-2" data-name="Layer 1"><text class="cls-1" transform="translate(0 146.47)">NICHE MUSIC<tspan class="cls-2" x="29.58" y="24">E</tspan><tspan class="cls-3" x="42.78" y="24">V</tspan><tspan x="56.72" y="24">EN</tspan><tspan class="cls-4" x="86.36" y="24">T</tspan><tspan x="97.92" y="24">S</tspan></text><text class="cls-1" transform="translate(267.21 146.47)">E<tspan class="cls-2" x="13.4" y="0">P</tspan><tspan x="27.64" y="0">IC MUSIC</tspan><tspan x="6.63" y="24">FE</tspan><tspan class="cls-2" x="32.73" y="24">S</tspan><tspan x="44.95" y="24">T</tspan><tspan class="cls-5" x="56.69" y="24">I</tspan><tspan class="cls-6" x="62.75" y="24">V</tspan><tspan x="76.25" y="24">A</tspan><tspan class="cls-5" x="90.89" y="24">L</tspan><tspan x="102.63" y="24">S</tspan></text><text class="cls-1" transform="translate(537.73 146.47)">G<tspan class="cls-7" x="15.44" y="0">L</tspan><tspan x="27.06" y="0">OBAL</tspan><tspan x="1.2" y="24">A</tspan><tspan class="cls-2" x="15.84" y="24">R</tspan><tspan x="30.18" y="24">TI</tspan><tspan class="cls-2" x="48.12" y="24">S</tspan><tspan class="cls-4" x="60.34" y="24">T</tspan><tspan x="71.9" y="24">S</tspan></text><text class="cls-1" transform="translate(831.42 146.47)">L<tspan class="cls-5" x="11.88" y="0">I</tspan><tspan class="cls-3" x="17.94" y="0">V</tspan><tspan x="31.88" y="0">E </tspan><tspan x="-62.17" y="24">R</tspan><tspan class="cls-8" x="-47.63" y="24">E</tspan><tspan class="cls-9" x="-34.29" y="24">C</tspan><tspan x="-20.13" y="24">ORDED SE</tspan><tspan class="cls-10" x="88.85" y="24">T</tspan><tspan class="cls-11" x="100.41" y="24">S</tspan></text><text class="cls-1" transform="translate(1076.68 146.47)">DI<tspan class="cls-2" x="22.72" y="0">S</tspan><tspan x="34.94" y="0">TIN</tspan><tspan class="cls-12" x="69.12" y="0">C</tspan><tspan x="83.42" y="0">T</tspan><tspan class="cls-13" x="95.16" y="0">I</tspan><tspan class="cls-9" x="101.22" y="0">V</tspan><tspan class="cls-11" x="115.16" y="0">E</tspan><tspan class="cls-12" x="-7.99" y="24">E</tspan><tspan class="cls-14" x="5.25" y="24">X</tspan><tspan class="cls-2" x="18.25" y="24">P</tspan><tspan x="32.49" y="24">ERIENCES</tspan></text><path d="M11.41,33v-.6a7.24,7.24,0,0,0,1.91.72V21.54a8,8,0,0,0-1.91-1.49c-.05-.6.41-.18.6-.3.88.62,1.62,1.43,2.87,1.41,3.1-.06,6.2,0,9.3,0,.36,0,.82.19,1.05-.35l-.83-1H25A7.91,7.91,0,0,0,26.43,21H37.92c.1-.63-.33-.91-.53-1.29H38c.42.42.59,1.05,1.06,1.28H50.69V19.75H51c.37.35.28,1,.78,1.28H63.29c.4-.47.24-.92.4-1.28h.6c0,.43-.13.91.35,1.31H76.15l.53-1.31h.61c-.07.37-.38.73-.05,1.27H88.72a4,4,0,0,0,1-1.27h.6c-.06.43-.58.69-.45,1.3h11.51a5.45,5.45,0,0,0,1.33-1.3h.61c-.09.5-.75.66-.78,1.22.46.32,1,.17,1.45.17,2.65,0,5.3-.07,8,0a4.64,4.64,0,0,0,3.77-1.42c.19.12.65-.3.6.3a6.67,6.67,0,0,0-1.91,1.54V33.1c.8,0,1.3-.48,1.91-.66V33a8.93,8.93,0,0,0-1.89,1.13V45.8c.73.17,1.29-.33,1.89-.06v.6a2.61,2.61,0,0,0-1.9.56V58.47c.69.32,1.32.12,1.9.26v.61c-.63,0-1.3-.17-1.94.29V71.11a5.16,5.16,0,0,0,1.94.62v.6c-.63.1-1.24-.52-1.94,0V83.76a4.22,4.22,0,0,0,1.94,1v.6c-.68.14-1.13-.63-1.92-.45V96.36c.47.7,1.31,1,1.89,1.65-.62.12-1-.28-1.48-.6a2.66,2.66,0,0,0-1.66-.62l-10.27,0c-.15,0-.31,0-.34.22,0,.48.76.61.58,1.22-.8-.29-1.13-1.09-1.84-1.4H89.84c-.32.54.48.9.13,1.42-.69-.32-.77-1.14-1.39-1.4H77.06c-.28.5.26,1-.2,1.37-.57-.26-.41-1-1-1.37H64.4c-.5.43-.11,1.11-.64,1.37-.51-.38-.19-1.07-.74-1.37H51.64c-.53.44-.4,1.16-1,1.35-.32-.46.26-1-.3-1.36H39c-.63.45-.75,1.15-1.45,1.41-.15-.51.42-.86.17-1.4H26.34c-.8.4-1.12,1.18-1.88,1.42-.16-.65.76-.79.4-1.51H15.27a6.74,6.74,0,0,0-2.37.34,3.23,3.23,0,0,0,.54-2c0-3,0-6,0-9,0-.43.14-.9-.23-1.34-.65-.07-1.12.63-1.79.52v-.6a3.27,3.27,0,0,0,1.89-1V72.26c-.75-.35-1.3.14-1.89.07v-.6a5.07,5.07,0,0,0,1.9-.6V59.54a4.77,4.77,0,0,0-1.9-.2v-.61c.61-.17,1.31.14,1.94-.35V46.89a3.1,3.1,0,0,0-1.94-.55v-.6c.59-.27,1.16.24,1.89,0V34.16C12.8,33.62,12,33.46,11.41,33ZM39,34.5a5.41,5.41,0,0,1-2.64.38,15.12,15.12,0,0,0-3.72.21c2.39,3.13,5.59,1.88,8.75,2.11-.73-1.29-1.74-1.84-2.42-2.69a30.94,30.94,0,0,0-2.85-2.74H29.72a3.2,3.2,0,0,0-1.75.34c-.19.15-.44.29-.44.57,0,2.6,0,5.2,0,7.84,1.29.52,2.29,1.4,3.78,1.59.07-2.46.08-4.8,0-7-1-1.27-2.55-1.71-3.33-3,1.15.21,1.83,1.16,2.74,1.75a3.09,3.09,0,0,0,1.76.74C34.65,34.56,36.85,34.71,39,34.5Zm49.59,0c1.7.21,3.42-.07,5.1.12,2.42.28,3.86-1.19,5.67-2.75H91l-2.28,2.64c-.65.9-1.78,1.4-2.3,2.69,1.68,0,3.19-.07,4.69,0,1.76.1,2.78-1,4.08-2.15a17.05,17.05,0,0,0-3.39-.19A6.9,6.9,0,0,1,88.63,34.5Zm5,46.77c-2.33-.89-4.72-.4-7.31-.45a7.78,7.78,0,0,0,1.9,2.09,53.52,53.52,0,0,0,6.46,0,1.4,1.4,0,0,0-.28-1c.46.09.82.63,1.51.29a40.2,40.2,0,0,0-.07-6.76A7.69,7.69,0,0,0,93,74.12c0,2,0,3.91,0,5.81A2.33,2.33,0,0,0,93.6,81.27Zm-6-46.45A12.49,12.49,0,0,0,90.31,32,8.11,8.11,0,0,0,88,31.75c-1.79-.1-3.6.26-5.37-.26,2.84-.42,5.71,0,8.17-.21l3.71-3.84c-3-.07-6.15-.14-9.29,0a44.06,44.06,0,0,0-2.55,4,11.25,11.25,0,0,0-2,3.06A5.75,5.75,0,0,0,79,37.12h6.24A11.93,11.93,0,0,0,87.57,34.82Zm-40.51-.26a8.68,8.68,0,0,0-1.8-2.81,79.28,79.28,0,0,0-8.06.18,28,28,0,0,0,2.9,2.89,12,12,0,0,0,2.22,2.23h6.4A6.63,6.63,0,0,0,47.06,34.56Zm-14.66,48c.39.53,1,.44,1.52.45,1.36,0,2.72-.06,4.07,0,1.59.11,2.45-.79,3.32-2.06a24,24,0,0,0-4.44-.17,4.49,4.49,0,0,0-2.75.59c1.23-2.34.39-4.8.7-7.5-1.23.63-2.25.88-3,1.73-.14,1.93-.05,3.89,0,5.85C31.76,81.91,31.85,82.36,32.4,82.51Zm54.87.4a7.82,7.82,0,0,0-2-2.07,56,56,0,0,0-6.22,0,3.57,3.57,0,0,0,1.26,2.08,51.27,51.27,0,0,0,7,0c-1.56.58-3.18.16-4.77.29-.62,0-1.29-.16-1.94.39a17.45,17.45,0,0,0,1.84,2.65c2.6,0,5.2.13,8.11-.08A19.25,19.25,0,0,0,87.27,82.91ZM99.15,85.4c.33.1.66.3,1-.08V77.51a19,19,0,0,0-3.53-1.67,2.51,2.51,0,0,0-.29,1.52c0,1.46,0,2.91,0,4.36a2.92,2.92,0,0,0,.78,2.19c-2.67-1.24-5.43-.57-8.15-.67l0,.31,2.48,2.56h7.84Zm-70.63,0a.61.61,0,0,0,.2.81c2.41,0,5,.11,7.47,0a14.5,14.5,0,0,0,2.77-3c-3,.26-5.75-.54-8.37.75a2.82,2.82,0,0,0,.76-2.19c0-1.15,0-2.31,0-3.46a5.33,5.33,0,0,0-.25-2.41,15.37,15.37,0,0,0-3.54,1.68v7.88A.91.91,0,0,0,28.52,85.4Zm4.73,4c-.1.27-.29.54,0,.93h9.29a17.22,17.22,0,0,0,2.26-3.72c-2.84-.23-5.53-.11-8.08-.07-1.29.9-2,2.21-3.38,2.77.56-1,1.61-1.59,2.31-2.8-2.14,0-4,0-5.94,0a6.7,6.7,0,0,0-3.63.74,4.28,4.28,0,0,0,1-1.45,71,71,0,0,0-.16-8,53.36,53.36,0,0,0-5.08,2.68V89c0,.49.06.92.68,1,.31.67.93.49,1.46.5,1.95,0,3.91,0,5.87,0A4.7,4.7,0,0,0,33.25,89.43ZM40.35,83a12.09,12.09,0,0,0-3.11,3.21c2.88.11,5.47.14,8.1,0l3.57-5.33a54.81,54.81,0,0,0-6.56,0,9.43,9.43,0,0,0-2,2.12Zm5.68-51a2,2,0,0,1,1.77-.61c1.71,0,3.41,0,5.12,0,.42,0,.91.16,1.27-.34a15.07,15.07,0,0,0-1.35-3.55c-3.11,0-6.23-.11-9.64,0l2.86,4.46c.78.93,1.22,2.11,2.16,2.91l0,0a5.41,5.41,0,0,0,1.48,2.28H56.2a49.48,49.48,0,0,0-1.79-5.27A60.13,60.13,0,0,0,46,31.93Zm2.18,51a10.44,10.44,0,0,0-2,3.3c2.82-.06,5.47.13,8.16-.11a42.91,42.91,0,0,0,1.76-5.24,37.86,37.86,0,0,0-6.56,0A10.41,10.41,0,0,0,48.19,83Zm55.84,6.15c.64.06,1,.84,1.81.66V80.39c-1.63-.88-3.2-1.73-4.81-2.4a1.81,1.81,0,0,0-.37,1.54c0,1.66,0,3.32,0,5a3.5,3.5,0,0,0,.9,2.76A6.24,6.24,0,0,0,99,86.52c-1.9.06-3.81,0-5.72,0-.36,0-.81-.16-1,.31l3.33,3.44H105ZM31.36,91.38c-.19-.24-.37-.5-.71-.51a87.07,87.07,0,0,0-8.85.07,3.35,3.35,0,0,0-1,.39,3.67,3.67,0,0,0,.44-1.73c0-2.6,0-5.21,0-7.81,0-.33.1-.73-.45-1C18.58,82,16.21,83,14.06,84.3V95.82l1.37-.57c-.07.27-.41.46-.23.89H26.54c.9-1,2-2.25,3.13-3.43.5-.52.88-1.23,1.71-1.36-.13.71-.75,1-1.19,1.5-1,1-2,2-3.26,3.27H38.62l3.37-5-.24-.31c-2.55,0-5.1,0-7.66,0A5.07,5.07,0,0,0,31.36,91.38Zm78.53,2.08c1.4.45,2.29,1.75,3.76,2.36V84.23l-7.15-3.58v9.83c1,1.25,2.55,1.74,3.43,3a4.3,4.3,0,0,1-2.13-1.34,5.28,5.28,0,0,0-4-1.36c-2,.1-4,0-6,0-.42,0-.9-.18-1.23.18l5.16,5.2c3.52,0,7.18.13,11-.11C111.78,94.91,110.48,94.57,109.89,93.46ZM14.05,58.58h7.1V48.67A67.41,67.41,0,0,0,14.05,47ZM113.6,46.89c-2.49.62-4.82,1.06-7,1.84v9.83h7Zm0-12.51c-2.53,1.3-4.93,2.37-7.12,3.66v9.85a68,68,0,0,0,7.12-1.77ZM21.2,47.91V38c-2.31-1.29-4.66-2.44-7.15-3.6v11.7C16.41,46.8,18.66,47.43,21.2,47.91ZM14.06,83.55c2.52-1.28,4.89-2.31,7-3.59.41-2.45.27-8.81-.23-9.89a62.42,62.42,0,0,0-6.81,1.81Zm7.1-56.25L14,22V33.71l7.14,3.58Zm.08,42c.06-3.39.09-6.62,0-9.92-2.56-.11-4.84-.11-7.07,0-.47,2.25-.33,10.66.19,11.65ZM106.5,70V80c2.35,1.21,4.62,2.41,7.15,3.49V71.76Zm0-.68c2.33.71,4.65,1.23,7.11,1.78V59.4c-2.41-.1-4.69-.09-7.11,0Zm0-32,7.14-3.62V22l-7.14,5.37ZM85.83,52.21c0,2.24-.1,4.28.06,6.43a35.86,35.86,0,0,0,6.39,0c.4-1.88.06-3.67.31-5.42.33,1.77-.18,3.6.42,5.35a5.2,5.2,0,0,0,2.87,0,50.06,50.06,0,0,0,0-7.24C92.5,52.57,89.21,51.85,85.83,52.21Zm-44,14.3c-3.44-.05-6.78-.4-10.11.94a37.4,37.4,0,0,0,.16,7.16,12.58,12.58,0,0,0,2.77-1.39L35,67.69c.3,1.76,0,3.58.41,5.43a57.09,57.09,0,0,0,6.41,0C42,70.86,41.92,68.78,41.87,66.51ZM93,51.34a8.32,8.32,0,0,0,2.92-.83,35,35,0,0,0-.14-7.06c-3,2.32-6.57,1-9.88,1.57,0,2.18-.11,4.22,0,6.36a33.79,33.79,0,0,0,6.28,0,7.84,7.84,0,0,0,.3-3c0-.88,0-1.76,0-2.64l.47,0Zm-51.12.84c-3.43-.29-6.7.36-10-.91a33.86,33.86,0,0,0,.06,7.28,4.69,4.69,0,0,0,2.76-.06c.35-1.81-.12-3.63.4-5.37.31,1.8-.1,3.66.4,5.52a43,43,0,0,0,6.42,0C41.93,56.4,42,54.37,41.83,52.18ZM63.52,21.7H51.84a36,36,0,0,0,1.7,5.14c2.19.37,8.86.25,10-.19ZM32.47,27c3-.06,6.19.16,9.67-.13l-3.43-5.12H27.14ZM64.19,96c2.7.45,10.7.26,11.57-.27-.54-1.59-1-3.23-1.64-4.73-2-.43-8.86-.31-10,.19A39,39,0,0,0,64.19,96ZM89.08,21.69,85.6,26.92H95l5.32-5.23Zm-38,.06H39.38L42.88,27c3.3,0,6.53.15,9.88-.1A45.84,45.84,0,0,0,51.11,21.75Zm37.3,0H76.68A37.22,37.22,0,0,0,75,26.92h9.92Zm-.19,74.42c-1.16-1.9-2.27-3.6-3.45-5.18-3.14-.39-8.74-.23-9.86.31a51.25,51.25,0,0,0,1.72,4.87ZM74.23,27a43.08,43.08,0,0,0,1.65-5.21H64.34A19.29,19.29,0,0,0,64.43,27ZM51,96.11a38.58,38.58,0,0,0,1.68-5.17H42.76l-3.44,5.17ZM64.41,31.37h7.44v.39H64.33a3.3,3.3,0,0,0,.18,2.8,48.59,48.59,0,0,0,7.23-.1c.72-2.31,1.63-4.46,2.23-7a94.77,94.77,0,0,0-9.56.06A8.43,8.43,0,0,0,64.41,31.37Zm17,.51c-2.45-.3-4.79,0-7.1-.33,2.56-.4,5.16,0,7.76-.35a19,19,0,0,0,2.32-3.7H74.68l-2.32,7a68.19,68.19,0,0,0,7.41,0A7.92,7.92,0,0,0,81.37,31.88ZM96.55,27h9.09a1.27,1.27,0,0,0,.7-.23c2.17-1.59,4.32-3.2,6.48-4.81l-.1-.23h-11Zm-81.5-5.33-.17.28,6.49,4.84a1.83,1.83,0,0,0,1.17.22c2.56,0,5.13,0,7.69,0,.28,0,.63.08.73-.18l-5.13-5.17ZM53.43,90.92a40.87,40.87,0,0,0-1.6,5.15H63.32a18.49,18.49,0,0,0-.08-5.15Zm47,5.2L95.22,90.8c-3.11.11-6.28-.18-9.72.17L89,96.12ZM21.88,69.92v9.74C23.72,78.75,25.41,78,27,77c0-2.83.09-5.56,0-8.48A34.56,34.56,0,0,0,21.88,69.92Zm78.88-1.31c-.15,3-.15,5.72,0,8.48a46,46,0,0,0,5.18,2.52c0-3.37.1-6.51,0-9.7A33.64,33.64,0,0,0,100.76,68.61Zm5.08-19.72a37.57,37.57,0,0,0-5.12,1.28,73.37,73.37,0,0,0,.08,8.51,35.08,35.08,0,0,0,5-.14ZM27,50.17a31.52,31.52,0,0,0-5.16-1.25c-.15,3.27-.13,6.44,0,9.7a43.9,43.9,0,0,0,5.13,0C27.1,55.76,27,53,27,50.17Zm-5.15,9.28v9.62A25.55,25.55,0,0,0,27,67.81a73.18,73.18,0,0,0-.07-8.38A25.81,25.81,0,0,0,21.84,59.45ZM27,40.86a49.3,49.3,0,0,0-5.19-2.47c0,3.37-.1,6.51,0,9.68A27.63,27.63,0,0,0,26.9,49.3,76.7,76.7,0,0,0,27,40.86Zm78.91-2.38a9.61,9.61,0,0,0-2.68,1.15,8.75,8.75,0,0,0-2.32,1.29c-.44,2.25-.29,7.34.29,8.4A27.51,27.51,0,0,0,105.86,48Zm-5.14,29.4A28.1,28.1,0,0,0,105.84,69V59.41a27.66,27.66,0,0,0-5.14.06C100.65,62.34,100.59,65.07,100.72,67.88ZM26.9,31.61l-5.08-3.8v9.75A42.21,42.21,0,0,0,26.9,40.1Zm73.88,8.6c1.89-1,3.56-1.67,5-2.66V27.86c-1.84,1.33-3.5,2.52-5,3.86ZM71.42,80.36A27.11,27.11,0,0,0,78,80.28a28.67,28.67,0,0,0-.07-6.61c-2.22,0-4.3-.13-6.49,0Zm-.65-6.58a25.18,25.18,0,0,0-6.55,0v6.5a22.81,22.81,0,0,0,6.55,0Zm0-7.27a31,31,0,0,0-6.67.12c0,2.24-.14,4.33.09,6.44h6.58Zm7.86,13.81a22.57,22.57,0,0,0,6.62-.08,26.5,26.5,0,0,0-.17-6.6c-2.22,0-4.3-.13-6.45.09ZM56.31,73.1V66.58a26.43,26.43,0,0,0-6.65,0,33.13,33.13,0,0,0,.15,6.53C52,73.19,54.07,73.25,56.31,73.1Zm.59-6.61c0,2.34-.28,4.46.18,6.55h6.45V66.48C61.33,66.39,59.24,66.36,56.9,66.49Zm6.64,7.2c-2.25-.11-4.32-.1-6.52,0a29.5,29.5,0,0,0,0,6.64,23.56,23.56,0,0,0,6.55,0ZM78,73.08a46.65,46.65,0,0,0,.12-6.48,25.78,25.78,0,0,0-6.74,0c0,2.23-.11,4.31,0,6.48ZM56.3,80.27v-6.5a44.55,44.55,0,0,0-6.54-.09,29.48,29.48,0,0,0,0,6.64A23.41,23.41,0,0,0,56.3,80.27Zm29-13.77a44.79,44.79,0,0,0-6.58.09v6.46h6.49A40.81,40.81,0,0,0,85.27,66.5ZM42.55,80.26a19.37,19.37,0,0,0,6.49,0V73.75h-6.6A64.18,64.18,0,0,0,42.55,80.26Zm-.08-13.78c0,2.33-.28,4.45.2,6.66,2.2,0,4.27.11,6.38,0V66.49C46.86,66.38,44.78,66.38,42.47,66.48ZM85.14,37.67a57.18,57.18,0,0,0-6.54,0c-.06,2.22-.1,4.29,0,6.47a37.83,37.83,0,0,0,6.56,0A26.92,26.92,0,0,0,85.14,37.67ZM71.42,44a15.91,15.91,0,0,0,6.45.08,17.56,17.56,0,0,0-.08-6.38,38.9,38.9,0,0,0-6.37.09Zm-7.25.27a29.78,29.78,0,0,0,6.62-.14,44.63,44.63,0,0,0,0-6.44c-2.29-.07-4.37-.11-6.56,0A42.06,42.06,0,0,0,64.17,44.24Zm-.62-6.51A51.33,51.33,0,0,0,57,37.66,28.68,28.68,0,0,0,57,44.21a26.07,26.07,0,0,0,6.55-.13C63.64,41.91,63.7,39.88,63.55,37.73ZM56.27,65.88V59.36a52.25,52.25,0,0,0-6.62,0,38.65,38.65,0,0,0,.13,6.56C52,66,54.08,66,56.27,65.88ZM78,45H71.35a55.4,55.4,0,0,0,.07,6.45,57.58,57.58,0,0,0,6.57,0A35.51,35.51,0,0,0,78,45Zm.64,7.16a56.9,56.9,0,0,0,0,6.53c2.27.12,4.36.09,6.57,0a28,28,0,0,0,0-6.54Zm-7.19,0v6.54a53.76,53.76,0,0,0,6.6-.06,46.61,46.61,0,0,0,0-6.48Zm-21.66-.7a42.54,42.54,0,0,0,6.58-.08c0-2.24.14-4.32-.06-6.4H49.75A28.09,28.09,0,0,0,49.77,51.45Zm7.15-6.52a29,29,0,0,0,.16,6.52,40.35,40.35,0,0,0,6.42-.07V44.93Zm13.91,6.45c.06-2.2.11-4.27,0-6.43H64.22a34.72,34.72,0,0,0,0,6.45A37.88,37.88,0,0,0,70.83,51.38Zm0,7.3c0-2.32.14-4.39-.07-6.5H64.21a35.5,35.5,0,0,0,0,6.52C66.46,58.78,68.55,58.81,70.85,58.68Zm14.34-7.23A24.53,24.53,0,0,0,85.13,45h-6.5a60.54,60.54,0,0,0,0,6.46A62.82,62.82,0,0,0,85.19,51.45Zm7.15,28.78a35.41,35.41,0,0,0,0-6.43,27,27,0,0,0-6.41,0v6.48A19.76,19.76,0,0,0,92.34,80.23ZM56.94,58.68a56.53,56.53,0,0,0,6.64,0c.09-2.29.1-4.36,0-6.51H57A36.3,36.3,0,0,0,56.94,58.68ZM35.29,73.82a47.13,47.13,0,0,0,.06,6.41,20.53,20.53,0,0,0,6.45,0v-6.6A37.58,37.58,0,0,0,35.29,73.82ZM49.75,58.73a62.29,62.29,0,0,0,6.57-.1c.1-2.22.09-4.3,0-6.45H49.69A36.85,36.85,0,0,0,49.75,58.73Zm28.87,7.12h6.59a32.53,32.53,0,0,0,0-6.47,33.08,33.08,0,0,0-6.6.09C78.53,61.65,78.48,63.69,78.62,65.85ZM78,59.37a32.41,32.41,0,0,0-6.62.1,62.09,62.09,0,0,0,0,6.4h6.68A56.59,56.59,0,0,0,78,59.37Zm-13.8,0a36.08,36.08,0,0,0,0,6.49h6.6a47.87,47.87,0,0,0,0-6.45A43.87,43.87,0,0,0,64.2,59.36Zm-.59,6.52c0-2.27.13-4.34-.07-6.52a62.05,62.05,0,0,0-6.54,0,28.52,28.52,0,0,0,0,6.53ZM49.92,37.7a16.35,16.35,0,0,0,0,6.5,26.45,26.45,0,0,0,6.4-.09c.08-2.19.1-4.26,0-6.41ZM92.27,66.64a28.18,28.18,0,0,0-6.35-.12v6.56a40.2,40.2,0,0,0,6.4,0A26.47,26.47,0,0,0,92.27,66.64Zm-43.22-29a48.92,48.92,0,0,0-6.42.06,38.88,38.88,0,0,0-.17,6.43h6.59Zm0,21c.11-2.26.11-4.34,0-6.53-2.29-.08-4.37-.1-6.57,0a56.86,56.86,0,0,0,0,6.52ZM42.49,44.93a56.91,56.91,0,0,0,0,6.53,53.44,53.44,0,0,0,6.58-.06,60.7,60.7,0,0,0,0-6.47Zm6.63,20.94c0-2.24.11-4.29-.06-6.44a48.33,48.33,0,0,0-6.59-.1,64.64,64.64,0,0,0,0,6.54ZM41.87,44.26c0-2.32.1-4.4,0-6.59a62.32,62.32,0,0,0-6.42,0,22.24,22.24,0,0,0,.05,6.47A45.78,45.78,0,0,0,41.87,44.26Zm50.4,21.61a19.9,19.9,0,0,0,0-6.49,34.39,34.39,0,0,0-6.34.06c-.12,2.21-.11,4.28,0,6.47C88.09,66,90.12,66,92.27,65.87ZM35.39,44.93a22.4,22.4,0,0,0,0,6.49,42.71,42.71,0,0,0,6.4,0,57.9,57.9,0,0,0,0-6.46Zm50.53-.87A16.13,16.13,0,0,0,92.3,44a20.79,20.79,0,0,0-.09-6.24,35.69,35.69,0,0,0-6.29,0ZM35.46,59.37a19.43,19.43,0,0,0-.05,6.5,57.87,57.87,0,0,0,6.45,0,54.61,54.61,0,0,0-.06-6.54A55.9,55.9,0,0,0,35.46,59.37ZM64.33,86.19c2.68.09,5.32.1,8.15,0a38.35,38.35,0,0,0-1.7-5.31,27.9,27.9,0,0,0-6.59.09,2.68,2.68,0,0,0,.17,1.94c2,.23,4,0,6,.16-2,.31-4.15-.23-6.24.41A6,6,0,0,0,64.33,86.19ZM55.17,86c2.08.39,7,.29,8.25-.18a16.54,16.54,0,0,0-.11-5,40.28,40.28,0,0,0-6.5.06A44.33,44.33,0,0,0,55.17,86Zm0-54.13A39.19,39.19,0,0,0,57,37.13a35.88,35.88,0,0,0,6.4-.06,2.14,2.14,0,0,0,0-2c-1.94-.43-4,0-6.06-.3,2.07-.25,4.17.1,6.3-.29a5.65,5.65,0,0,0-.22-2.58A56.81,56.81,0,0,0,55.19,31.89ZM73.34,83.08c1.9-.22,3.85.13,5.94-.29a5.12,5.12,0,0,0-1.37-2,50.55,50.55,0,0,0-6.49.05,48.1,48.1,0,0,0,1.93,5.34,56.87,56.87,0,0,0,8-.16,8.65,8.65,0,0,0-1.78-2.75C77.55,83,75.44,83.26,73.34,83.08ZM63.49,27.79c-1.38-.6-8.44-.59-9.67,0a16.68,16.68,0,0,0,1.25,3.51c2.78-.07,5.61.14,8.4-.12A11.47,11.47,0,0,0,63.49,27.79Zm.74,58.85a8.69,8.69,0,0,0,.09,3.8c3.15,0,6.28.13,9.53-.1a14.41,14.41,0,0,0-1.25-3.77C69.84,86.52,67.09,86.41,64.23,86.64ZM42.54,27.44c-3.15-.12-6.32-.09-9.73,0l4,3.86c2.41,0,5.09.11,7.92-.09A21.78,21.78,0,0,0,42.54,27.44ZM52.9,90.36A10,10,0,0,0,54,86.63c-2.82-.2-5.56-.12-8.27-.06a31,31,0,0,0-2.48,3.79Zm20.54-3.74a14.86,14.86,0,0,0,1.28,3.7h9.56a21.7,21.7,0,0,0-2.44-3.74C79.12,86.51,76.37,86.43,73.44,86.62Zm11.82,3.83c1.61,0,3.17,0,4.72,0a25.68,25.68,0,0,0,4.73-.18A37.19,37.19,0,0,0,91,86.55c-2.69.06-5.37-.26-8.16.19A20.21,20.21,0,0,0,85.26,90.45ZM55,86.55a11,11,0,0,0-1.23,3.83c3.23.12,6.34.11,9.51,0a7.24,7.24,0,0,0-.15-3.77C60.5,86.4,57.85,86.55,55,86.55ZM35.24,31.06A20.32,20.32,0,0,0,31.8,27.4c-3,.05-5.92-.19-8.88.34a43.16,43.16,0,0,0,3.93,3.16,1.68,1.68,0,0,0,.82.33A48.05,48.05,0,0,0,35.24,31.06Zm57.18-.17.1.41c2,0,4.08-.07,6.12,0,2.82.12,4.14-2.14,6-3.53a52.26,52.26,0,0,0-8.92-.31A39.88,39.88,0,0,0,92.42,30.89ZM31.24,67.57a12.1,12.1,0,0,0-3.68,1v8.09a11.4,11.4,0,0,0,3.68-1.74Zm68.85-9V50.4a10.86,10.86,0,0,0-3.68.89,41,41,0,0,0,.09,7.34A14.91,14.91,0,0,0,100.09,58.57ZM31.29,43.11a12.67,12.67,0,0,0-3.76-1.71c-.13,2.75-.12,5.39,0,8a11.59,11.59,0,0,0,3.76,1C31.4,48,31.39,45.58,31.29,43.11Zm68.87,33.5a76.23,76.23,0,0,0-.06-8.15,10.14,10.14,0,0,0-3.68-.77,55.26,55.26,0,0,0,0,7.28A14.64,14.64,0,0,0,100.16,76.61ZM96.42,50.48a14.19,14.19,0,0,0,3.66-1V41.3a16.91,16.91,0,0,0-3.73,1.87C96.33,45.53,96.23,47.92,96.42,50.48Zm-65.13,8a48.67,48.67,0,0,0-.08-7.34c-1.25-.27-2.32-.84-3.7-.71a72.72,72.72,0,0,0,.07,8.09A10.07,10.07,0,0,0,31.29,58.52Zm0,8.2a44.31,44.31,0,0,0-.05-7.28,7.89,7.89,0,0,0-3.63.15v8.06A12.29,12.29,0,0,0,31.26,66.72Zm65.17,0a14.74,14.74,0,0,0,3.7.89c.17-2.76.11-5.44.05-8.14a7.06,7.06,0,0,0-3.77.09A50.33,50.33,0,0,0,96.43,66.77Zm0-31.86v7.26a15.65,15.65,0,0,0,3.64-1.69V32.27A25.72,25.72,0,0,0,96.47,34.91ZM95.93,66.5a40,40,0,0,0-.16-7.08,5.2,5.2,0,0,0-2.84.18A19.39,19.39,0,0,0,93,66,7.06,7.06,0,0,0,95.93,66.5Zm-.08,8a37.37,37.37,0,0,0,0-7.18c-.59-.17-1.06-.33-1.55-.44s-.74-.35-1.16-.15a14.37,14.37,0,0,0,.05,6.62A13.55,13.55,0,0,0,95.85,74.54ZM34.64,44.73c-.94-.41-1.66-1.17-2.85-1.1a41.55,41.55,0,0,0,.07,7,9,9,0,0,0,2.8.7A23.71,23.71,0,0,0,34.64,44.73Zm-2.89-9.38a57.18,57.18,0,0,0,.12,7.35A11.92,11.92,0,0,0,34.67,44a24.13,24.13,0,0,0-.05-6.42A16.42,16.42,0,0,0,31.75,35.35Zm61.16,8.76a9.82,9.82,0,0,0,2.92-1.59V35.45a14,14,0,0,0-2.8,2.1C92.82,39.63,92.92,41.69,92.91,44.11ZM31.81,59.5a51.85,51.85,0,0,0,0,7,6.92,6.92,0,0,0,2.92-.65,48.82,48.82,0,0,0,0-6.4A5.73,5.73,0,0,0,31.81,59.5ZM64.47,37.17c2.06.08,4.14.1,6.17,0A2.76,2.76,0,0,0,71.32,35a35,35,0,0,0-6.87,0A2,2,0,0,0,64.47,37.17ZM79.27,35a30.64,30.64,0,0,0-7,0,3,3,0,0,0-.58,2.09,53.91,53.91,0,0,0,6.22,0A4.1,4.1,0,0,0,79.27,35Z"/><path d="M57.33,83h4.92v.09H57.32Z"/><path d="M48.19,83h6.15a22.47,22.47,0,0,1-6.13,0Z"/><path d="M48.22,34.82c2.05-.46,4.11,0,6.17,0H48.2Z"/><path d="M40.32,83h5.86a20.34,20.34,0,0,1-5.83,0Z"/><path d="M47.09,34.55c-1.15.54-2.37.26-3.55.3s-2.3,0-3.45,0c1.46-.47,3-.17,4.46-.25C45.39,34.57,46.24,34.57,47.09,34.55Z"/><path d="M87.59,34.86h-5.1a3.75,3.75,0,0,1-1.9-.31l5.09.07A4.44,4.44,0,0,1,87.59,34.86Z"/><path d="M575.62,102a37.8,37.8,0,0,1-37.77-38,37.88,37.88,0,1,1,37.81,38Zm-2-4.52c-.8,0-.94.35-1.36,1.4l-.08.21c-.19.47-.22.78-.09,1s.57.31,1,.33c.73,0,1.45.06,2.18.06a46.31,46.31,0,0,0,7.07-.56,3.06,3.06,0,0,0,2.4-2.09l.09-.19h-.21c-1.7.12-3.26.18-4.77.18-1.87,0-3.61-.09-5.34-.26C574.12,97.47,573.83,97.44,573.6,97.44Zm-13.87-3.53a.33.33,0,0,0-.24.1c-.09.09-.11.24-.09.48l.06.84c-.29,1.08.5,1.59,1.39,2a39.22,39.22,0,0,0,8.5,2.58l.16,0a1.51,1.51,0,0,0,.36.06h0c.27,0,.44-.16.53-.46a5,5,0,0,1,.25-.71,3.29,3.29,0,0,0,.33-1.63c0-.08-.07-.17-.46-.24A54.86,54.86,0,0,1,560.09,94,1,1,0,0,0,559.73,93.91Zm31.85,2.39-1.11.25a24.54,24.54,0,0,1-2.58.52,1.92,1.92,0,0,0-1.71,1.59l-.07.23.23-.07a21.31,21.31,0,0,0,5.34-2.29l.61-.38ZM576,88.58c-.5,0-.64.34-.74.67-.61,2.11-1.17,4-1.71,5.69a.64.64,0,0,0,.65,1,56.08,56.08,0,0,0,5.78.32h0a44.1,44.1,0,0,0,5.21-.3h.12a.8.8,0,0,0,.76-.4,40.66,40.66,0,0,0,2.78-6.72l0-.18-.19,0a51.8,51.8,0,0,1-5.75.32,60.22,60.22,0,0,1-6.82-.4Zm-28-1.14a33.53,33.53,0,0,0,9.68,8.21l.19.1v-.64a4.94,4.94,0,0,1,0-.56,1.89,1.89,0,0,0-1.38-2.16,30.34,30.34,0,0,1-5-2.79c-.77-.52-1.53-1.06-2.28-1.6l-1.77-1.25Zm54.79-2.82a40.52,40.52,0,0,1-11.52,3.68c-.35,0-.7.11-.83.53a49.42,49.42,0,0,1-2.54,6.49l-.1.22.24-.05a39.9,39.9,0,0,0,9.66-3.33c3.06-1.43,4.11-4,5.26-7.39l.1-.28Zm-43.43,4.59,0,.11c0,.15,0,.3,0,.45a4.18,4.18,0,0,1,0,.94c-.18,1.07.34,1.5,1.18,1.82a61.17,61.17,0,0,0,10.39,2.92,1.35,1.35,0,0,0,.33,0c.39,0,.61-.2.75-.68.55-1.93,1.13-3.81,1.7-5.59a.93.93,0,0,0,0-.77c-.11-.18-.33-.28-.72-.34a56.73,56.73,0,0,1-12.27-3.47,1.23,1.23,0,0,0-.44-.1c-.44,0-.49.47-.5.65l-.38,4ZM547.71,77.33a34.3,34.3,0,0,0-.3,6.75,1.2,1.2,0,0,0,.47.85,41.08,41.08,0,0,0,9.07,6,1.18,1.18,0,0,0,.46.15c.36,0,.37-.43.38-.63a55.51,55.51,0,0,1,.53-6.11.77.77,0,0,0-.47-.93,48.25,48.25,0,0,1-9.94-6.17l-.17-.13Zm35.56,10.11a46.71,46.71,0,0,0,5.3-.32c.42,0,.81-.08.95-.62a50.63,50.63,0,0,0,1.57-10.07.67.67,0,0,0-.12-.53.49.49,0,0,0-.38-.13h-.13a42.7,42.7,0,0,1-4.72.25,56.05,56.05,0,0,1-6.43-.39h-.18c-.44,0-.59.25-.69.66-.84,3.61-1.62,6.85-2.38,9.9a.8.8,0,0,0,0,.67c.12.17.33.22.67.25a56,56,0,0,0,5.85.34h.66Zm-19.49-16c-.34,0-.49.29-.6.56a67.28,67.28,0,0,0-2.89,9.89c-.16.75.16,1,.72,1.25a57.56,57.56,0,0,0,8.48,2.68c1,.23,2,.43,3,.64l1.28.26h.14c.45,0,.54-.35.62-.63.91-3.37,1.67-6.69,2.4-9.9a.89.89,0,0,0,0-.74.9.9,0,0,0-.68-.34,51.84,51.84,0,0,1-11.93-3.56A1.2,1.2,0,0,0,563.78,71.45Zm43.1,10.78c-1.94.58-2.33,2.07-2.64,4l-.08.51.31-.42A30.52,30.52,0,0,0,607,82.4l.14-.26Zm-3.46-9.9a1,1,0,0,0-.41.12,35.44,35.44,0,0,1-9.57,2.93.81.81,0,0,0-.8.88,49.52,49.52,0,0,1-1.38,9.55.81.81,0,0,0,0,.69.49.49,0,0,0,.41.16h0a1.47,1.47,0,0,0,.33,0,37.25,37.25,0,0,0,10.84-3.79,1.49,1.49,0,0,0,.84-1.16,28.83,28.83,0,0,0,.35-4.75,33,33,0,0,0-.23-3.94C603.78,72.63,603.74,72.33,603.42,72.33Zm-63.24-3.41a18.73,18.73,0,0,0,5.41,13.69l.21.23v-.31a39.28,39.28,0,0,1,.46-6.13,1,1,0,0,0-.44-1,33.79,33.79,0,0,1-4-4.47c-.34-.47-.67-1-1-1.43l-.67-1Zm12.17-4.67c-.26,0-.38.24-.52.51a38.8,38.8,0,0,0-3.05,7.5q-.25.9-.48,1.8l-.21.83a.86.86,0,0,0,.44.87l.1.08a47.2,47.2,0,0,0,9.27,5.93,1.16,1.16,0,0,0,.46.14c.38,0,.47-.42.5-.62a57.85,57.85,0,0,1,3-10,.68.68,0,0,0-.39-1,40.28,40.28,0,0,1-8.58-5.74A.87.87,0,0,0,552.35,64.25Zm58,3A22.08,22.08,0,0,1,605.7,71a.94.94,0,0,0-.45,1.13,31.49,31.49,0,0,1,.33,6.11c0,.58-.06,1.17-.1,1.76l-.07,1.07.2-.12c4.46-2.5,6.48-8.09,4.91-13.61l-.06-.2Zm-28.77-5c-.48,0-.7.21-.77.72-.43,3.29-1,6.64-1.71,10.23a.84.84,0,0,0,.06.66c.14.19.39.23.7.26a60.56,60.56,0,0,0,6.23.36h.35c.63,0,1.37-.06,2.16-.12l1.75-.11c.66,0,.93-.33.93-1a74.72,74.72,0,0,0-.81-10.36c-.06-.37-.16-.77-.7-.77h-.2a29.2,29.2,0,0,1-4.1.27c-1.12,0-2.31,0-3.73-.15ZM545.3,54.81a23.19,23.19,0,0,0-4.84,9.92,1.47,1.47,0,0,0,.08,1,27.15,27.15,0,0,0,6,8.26l.16.15,0-.21a41.45,41.45,0,0,1,4.06-10.45.68.68,0,0,0-.07-.94,26.1,26.1,0,0,1-5.22-7.66l-.08-.19Zm54.08,4.52a1,1,0,0,0-.38.13,27,27,0,0,1-6.57,2.25c-.46.1-.62.32-.54.76a66.21,66.21,0,0,1,.86,10.74c0,.2,0,.66.51.66l.23,0a35.14,35.14,0,0,0,9.33-3c.32-.15.66-.32.52-.82a46.39,46.39,0,0,0-3.56-10.38C599.68,59.44,599.55,59.33,599.38,59.33Zm-29.76.09a.65.65,0,0,0-.58.42c-1.89,3.4-3.42,6.44-4.69,9.29a.8.8,0,0,0-.07.64.91.91,0,0,0,.55.41l1.32.51c.62.25,1.25.51,1.88.73a54.54,54.54,0,0,0,8.82,2.3l.16,0h0c.38,0,.46-.37.52-.7.59-2.91,1.05-5.81,1.49-8.61l.26-1.62c.12-.73-.26-.85-.78-.94a40.9,40.9,0,0,1-8.42-2.33A1.12,1.12,0,0,0,569.62,59.42Zm35.2-4.68a1,1,0,0,1-.1.21,15,15,0,0,1-3.37,3.1.61.61,0,0,0-.19.92,46.5,46.5,0,0,1,3.49,9.94c.05.19.13.56.44.56a.9.9,0,0,0,.47-.19,22.08,22.08,0,0,0,4.17-3.69,1.09,1.09,0,0,0,.21-1.13,33.12,33.12,0,0,0-4.25-9.25l-.06-.09a1,1,0,0,0-.65-.51l-.1,0Zm-44.69-.91c-.27,0-.48.18-.75.47a58.28,58.28,0,0,0-5.83,7.5,1,1,0,0,0,.18,1.49,43,43,0,0,0,8.13,5.47l.32.16.17.08h0a.54.54,0,0,0,.57-.49.76.76,0,0,1,.06-.18,94.56,94.56,0,0,1,4.51-8.89.93.93,0,0,0,.18-.72c-.07-.21-.27-.35-.56-.49a29,29,0,0,1-6.33-4.06A1.06,1.06,0,0,0,560.13,53.83Zm47.24-5.12a13,13,0,0,1-1.17,3.92.78.78,0,0,0,.2.89l.1.13a38.75,38.75,0,0,1,2.43,4.05,43.53,43.53,0,0,1,2.2,5.28l.09.23.13-.2c1.54-2.23-.86-11.36-3.77-14.37l-.17-.18Zm-63.61-.52c-2.91,3.32-3.48,7.46-4,11.47l-.32,2.25.37-.88a30.17,30.17,0,0,1,4.72-7.68.89.89,0,0,0,.24-.85,24.79,24.79,0,0,1-.7-3.82l-.1-.7Zm10.86-1.29a.82.82,0,0,0-.45.17,40.69,40.69,0,0,0-7.08,5.7.94.94,0,0,0-.31,1.11,23.67,23.67,0,0,0,5,7.51l.11.12.09-.14a53.94,53.94,0,0,1,6.59-8.45.62.62,0,0,0,.21-.42.76.76,0,0,0-.29-.47l-.1-.09a19.57,19.57,0,0,1-3.26-4.55C555,47.12,554.88,46.9,554.62,46.9ZM583,49.46c-.46,0-.78.13-.82.76-.19,3.07-.51,6.25-1,9.72a.62.62,0,0,0,.68.82c.82,0,1.64.08,2.48.13l1,.06,1.09-.07c.85-.06,1.72-.12,2.59-.16a.92.92,0,0,0,.73-.27,1,1,0,0,0,.07-.84,82.22,82.22,0,0,0-2.66-9.41c-.17-.5-.41-.82-1-.82H586c-.56,0-1.18.08-1.89.08H583Zm-6.38-1.18a.82.82,0,0,0-.71.5q-2.62,4.2-5.27,8.37a.86.86,0,0,0-.19.68c.06.18.23.31.56.43a45.57,45.57,0,0,0,7.7,2.09l.3,0c.57,0,.69-.43.73-.85.23-2.32.48-4.64.72-7L580.7,50c.13-.62-.28-.77-.7-.86a28.41,28.41,0,0,1-3-.78A1.41,1.41,0,0,0,576.59,48.28Zm15.25-.56a13.33,13.33,0,0,1-2.7,1.07.74.74,0,0,0-.55.34.76.76,0,0,0,0,.67,66.83,66.83,0,0,1,2.74,9.76c.07.35.19.67.61.67a1.64,1.64,0,0,0,.34,0,26.41,26.41,0,0,0,5.82-2c.26-.13.45-.25.51-.45a.81.81,0,0,0-.13-.62,59.48,59.48,0,0,0-6-9l-.07-.09a.64.64,0,0,0-.53-.34h-.08Zm-21.3-2.66a1.2,1.2,0,0,0-.67.27,74.33,74.33,0,0,0-8,6.47,1,1,0,0,0-.41.69c0,.2.14.39.45.63A33.27,33.27,0,0,0,568,56.93l.48.23a.65.65,0,0,0,.63-.44l.07-.11,1.5-2.39c1.25-2,2.5-4,3.77-6,.17-.27.23-.45.18-.62a.85.85,0,0,0-.5-.44,13.43,13.43,0,0,1-3-1.85A.92.92,0,0,0,570.54,45.06Zm24.8,0c-.44,0-.79.38-1.5,1.14-.42.45-.34.7-.06,1a58.82,58.82,0,0,1,6.07,9.1c.11.2.25.41.48.41h0a.75.75,0,0,0,.45-.2,14.44,14.44,0,0,0,3-2.91c.08-.11.15-.23.23-.36l.14-.25-.22-.29c-.11-.15-.21-.3-.32-.44A39.19,39.19,0,0,0,596.94,46C596.17,45.42,595.74,45.1,595.34,45.1Zm.91-4.5c0,.21,0,.42,0,.62a5,5,0,0,1-.17,1.2c-.23.75.06,1.12.64,1.51a37.65,37.65,0,0,1,3.86,3,49.18,49.18,0,0,1,4.31,4.45l.13.15.08-.18a9.74,9.74,0,0,0,.8-4.28,1.12,1.12,0,0,0-.35-.8,25.61,25.61,0,0,0-9.09-5.81l-.15,0Zm-43,.38A30.88,30.88,0,0,0,546,45.86a1,1,0,0,0-.28.73,14,14,0,0,0,.3,4.74l.06.21.15-.15a42,42,0,0,1,7.48-5.85.65.65,0,0,0,.32-.82,14,14,0,0,1-.49-2.65c0-.33-.08-.66-.13-1l0-.16Zm14,.18a1.42,1.42,0,0,0-.36.09l-.1,0a57.8,57.8,0,0,0-10,4.23c-.62.33-.59.67-.32,1.18a20,20,0,0,0,3,4.2.81.81,0,0,0,.55.32.77.77,0,0,0,.52-.27,64.32,64.32,0,0,1,8.17-6.69l.32-.26.24-.21-.4-.56c-.49-.68-1-1.35-1.45-2l0,0Zm16.26,2h-.4c-.62,0-.62.48-.62.77v.15c0,.36,0,.71,0,1.06v.45c-.08,1.23-.12,1.85.18,2.17a1.24,1.24,0,0,0,1,.27h0c.32,0,.74,0,1.27-.07l.16,0,.23,0c.22,0,.51,0,.64-.23s.08-.37-.07-.67c-.5-1.06-1-2.16-1.49-3.29A.82.82,0,0,0,583.57,43.14Zm-3.43-.25a.8.8,0,0,0-.73.46,28.39,28.39,0,0,1-1.63,2.51c-.22.29-.41.6-.31.86s.31.34.75.44l1,.25a5.05,5.05,0,0,0,1.07.21c.54,0,.56-.41.6-1.3,0-.3,0-.68.07-1.13v-.4c0-.31,0-.61,0-.92a1,1,0,0,1,0-.17c0-.27,0-.63-.46-.75A1.83,1.83,0,0,0,580.14,42.89Zm6.43-.67-.23.11a.87.87,0,0,0-.53.44.82.82,0,0,0,.14.62,13.9,13.9,0,0,1,.81,1.7l.2.48c.54,1.23.85,1.87,1.53,1.87h0a5.06,5.06,0,0,0,1.82-.67c.26-.13.44-.26.46-.45s-.13-.39-.28-.53l-1.9-1.87-1.4-1.37a1.61,1.61,0,0,0-.35-.25l-.2-.12Zm-9.81-.92a1.05,1.05,0,0,0-.56.18c-.92.56-1.86,1.08-2.86,1.64l-1.49.84.16.12A20,20,0,0,0,575,46a1,1,0,0,0,.46.13c.29,0,.47-.19.65-.49l.67-1c.31-.48.63-1,.91-1.44a1.4,1.4,0,0,1,.17-.2c.16-.17.33-.35.3-.57a.56.56,0,0,0-.28-.39,1.89,1.89,0,0,1-.28-.23A1.36,1.36,0,0,0,576.76,41.3Zm11.39-.07c1.35,1.33,2.57,2.53,3.73,3.82a.79.79,0,0,0,.56.34h0c.27,0,.44-.24.58-.46a2.11,2.11,0,0,1,.17-.22l.12-.11c.18-.15.4-.34.38-.59a.71.71,0,0,0-.4-.48,30.38,30.38,0,0,0-5-2.5l-.55-.21Zm-21.91-3.77a2,2,0,0,0-.34,0l-.18,0a39.06,39.06,0,0,0-9.65,2.19A1.33,1.33,0,0,0,555,41.26l.1.7c.09.53.17,1.06.25,1.59,0,.22.09.66.48.66h0a1,1,0,0,0,.47-.16,57.43,57.43,0,0,1,9.91-4.18c.86-.27.7-.86.59-1.29a1.4,1.4,0,0,1-.08-.5.58.58,0,0,0-.12-.48A.44.44,0,0,0,566.24,37.46Zm28-1.58.11.19c.1.17.21.33.31.48a3.87,3.87,0,0,1,.49.87,2.62,2.62,0,0,0,1.94,1.69,21.79,21.79,0,0,1,4.9,2.45c.64.42,1.26.86,1.91,1.33l1.29.91-.18-.41c-2.13-4.78-5.9-7.51-10.34-7.51Zm-39-1.54c-3,1.93-6.36,4.43-8.28,8.31l-.21.41.39-.25a45,45,0,0,1,6.11-3.53c.31-.15.48-.29.51-.45a19.53,19.53,0,0,1,1.65-4.32l.22-.42Zm19.8,5a1.65,1.65,0,0,0-.32,0l-.92.2c-1,.21-2.1.43-3.14.67l-.62.13c-.47.1-.72.15-.8.35s.13.53.78,1.39a1.4,1.4,0,0,1,.12.18c.15.23.32.5.66.5h0a.94.94,0,0,0,.48-.16c.85-.53,1.71-1,2.57-1.54l1.32-.77.09,0c.15-.07.37-.18.32-.45S575.29,39.31,575,39.31ZM589.27,39h-.51l-.45,0,1.52.82c1.45.78,3,1.58,4.4,2.44l.14.08,0-.15a2.9,2.9,0,0,0,.07-2.11.72.72,0,0,0-.45-.37A19.26,19.26,0,0,0,589.27,39ZM569,37.32a.71.71,0,0,0-.57.2.88.88,0,0,0-.08.71l0,.15v.13c0,.22,0,.57.45.57h0l.24,0c1.18-.3,2.37-.57,3.66-.87l2.39-.56-.76-.08c-1.68-.16-3.13-.23-4.56-.23Zm-7.36-4.1a21.69,21.69,0,0,0-2.58.15,1.42,1.42,0,0,0-1,.47,11.35,11.35,0,0,0-2.49,4.2l-.08.24.24-.08a34.22,34.22,0,0,1,9.55-2.12A2.28,2.28,0,0,0,567.73,34l0-.12-.13,0A31.31,31.31,0,0,0,561.59,33.22Zm29.61,2.61a6.74,6.74,0,0,0-.9.08c-.62.1-1.23.23-1.84.36l-.15,0c-.2,0-.53.08-.51.45a.6.6,0,0,0,.63.52,36,36,0,0,1,3.9.51l1.21.2-.1-.22C592.84,36.45,592.35,35.83,591.2,35.83Zm-21.34-1.47c-.46,0-.78.35-.87,1a.48.48,0,0,0,.07.41.39.39,0,0,0,.31.12,1.65,1.65,0,0,0,.3,0l.21,0c.64,0,1.27,0,1.9,0H574l0-.21-.09-.13-1-.28c-.91-.25-1.82-.49-2.72-.75A1.18,1.18,0,0,0,569.86,34.36Zm16.52-1.92c-.47,0-.79.36-1.41,1.08a.94.94,0,0,0-.33.69c0,.22.26.37.59.55a2.51,2.51,0,0,0,1.25.37,2.38,2.38,0,0,0,.83-.16,12.49,12.49,0,0,1,1.65-.4l1-.2.32-.08-1.11-.61c-.52-.28-1-.53-1.42-.76A3.38,3.38,0,0,0,586.38,32.44Zm-12-.85a.86.86,0,0,0-.27.05l-.25.09a7.78,7.78,0,0,0-2.4,1.16l-.19.15,1.24.38c.64.2,1.25.38,1.85.58s1.11.36,1.66.55l.44.15a.87.87,0,0,0,.32.06h0a1,1,0,0,0,.81-.44.4.4,0,0,0,.07-.31c0-.18-.22-.29-.38-.39s-.11-.07-.15-.11c-.51-.42-1-.83-1.56-1.23l-.51-.39A1.07,1.07,0,0,0,574.34,31.59Zm15.13-.95a2.24,2.24,0,0,0-1.37.51l-.16.11.8.44a22.36,22.36,0,0,1,2.4,1.43,5.82,5.82,0,0,0,3.56,1.19h0a8.52,8.52,0,0,0,1.28-.11l.32-.05L596,34a42.16,42.16,0,0,0-5.38-3A2.7,2.7,0,0,0,589.47,30.64ZM577,31.41l0,.05L578.87,33a2.34,2.34,0,0,1,.23.22,1.28,1.28,0,0,0,.83.51.68.68,0,0,0,.43-.16c.4-.29.17-.74,0-1.1a1.87,1.87,0,0,1-.22-.63c-.07-.38-.17-.91-.88-.91h-2.2Zm4.6,0a5.07,5.07,0,0,1,.22,1c.11.63.21,1.22.67,1.37l.17,0h0c.37,0,.62-.4.88-.82a2.87,2.87,0,0,1,.56-.73.49.49,0,0,0,.12-.25.44.44,0,0,1,0-.1l0-.12-.12,0a10.3,10.3,0,0,0-2.44-.47h-.19ZM567.29,29a8.1,8.1,0,0,0-6,2.45l-.18.2h.27a40.71,40.71,0,0,1,7.22.8,2.09,2.09,0,0,0,.34,0,.77.77,0,0,0,.53-.19,14.94,14.94,0,0,1,2.75-1.68l.36-.18-.21-.12A10.56,10.56,0,0,0,567.29,29Zm14.06.51a7.86,7.86,0,0,1,2,.36,7.43,7.43,0,0,0,2,.38,3.16,3.16,0,0,0,1.52-.37l.25-.12-.26-.1a22.88,22.88,0,0,0-6.48-1.58l-.23,0,.11.2c.07.15.13.3.19.44.15.4.31.81.78.81Zm-6-1.77A23,23,0,0,0,572,28l-.24,0,.17.17a4.75,4.75,0,0,0,3.68,1.5h0a15.89,15.89,0,0,0,2.55-.27l.88-.13-.12-.17c-.09-.13-.17-.28-.25-.42-.23-.44-.47-.9-1.17-.9h-.69Z"/><path class="cls-15" d="M575.79,26.08l0,.25a37.75,37.75,0,1,1-.21,75.5A37.32,37.32,0,0,1,549,90.75a37.79,37.79,0,0,1,26.82-64.42v-.25m-.2,3.73a17.38,17.38,0,0,0,2.57-.27l.67-.11.41-.05L579,29c-.09-.13-.16-.27-.24-.41-.24-.45-.51-1-1.28-1h-2.16a21.88,21.88,0,0,0-3.36.21l-.48.07.34.35a4.9,4.9,0,0,0,3.77,1.54m5.64-.15h.12a7.19,7.19,0,0,1,1.94.36,7.88,7.88,0,0,0,2.06.37,3.4,3.4,0,0,0,1.58-.37l.5-.26-.52-.2A23.6,23.6,0,0,0,580.39,28l-.45,0,.21.41a3.79,3.79,0,0,1,.18.42c.16.42.35.9.9.9m-12.3,3a1,1,0,0,0,.61-.22,14,14,0,0,1,2.74-1.67l.14-.07.41-.22-.41-.23a10.82,10.82,0,0,0-5.13-1.34,8.23,8.23,0,0,0-6.1,2.49l-.37.41h.55a39.66,39.66,0,0,1,7.2.79,2.08,2.08,0,0,0,.36,0m25.77,1.8a7.6,7.6,0,0,0,1.3-.11l.63-.09-.53-.36a42.48,42.48,0,0,0-5.4-3,2.78,2.78,0,0,0-1.23-.32,2.38,2.38,0,0,0-1.45.53l-.31.23.34.19.64.35a21.31,21.31,0,0,1,2.38,1.41,5.89,5.89,0,0,0,3.63,1.21m-16.26-3.59h-1.5l0,.23,0,.26v.12l.1.09.49.43,1.32,1.15.22.21a1.38,1.38,0,0,0,.92.55.83.83,0,0,0,.5-.18c.48-.35.22-.89,0-1.25l-.14-.3a2.27,2.27,0,0,1-.06-.3c-.08-.4-.19-1-1-1h-.8m4.23,3c.44,0,.72-.45,1-.88a2.47,2.47,0,0,1,.53-.7.57.57,0,0,0,.16-.32.29.29,0,0,1,0-.09l.08-.24-.24-.08a10.63,10.63,0,0,0-2.47-.47l-.39,0,.14.36a4.87,4.87,0,0,1,.22.95c.11.67.22,1.29.76,1.47a.64.64,0,0,0,.2,0m-5.94,1a1.13,1.13,0,0,0,.92-.49.53.53,0,0,0,.09-.41.83.83,0,0,0-.43-.47l-.14-.09c-.52-.43-1-.85-1.57-1.25l-.5-.38a1.25,1.25,0,0,0-.76-.33.85.85,0,0,0-.31.06l-.25.09a7.77,7.77,0,0,0-2.43,1.18l-.38.29.45.15.94.28c.66.21,1.3.4,1.92.61s1.12.37,1.67.56l.43.14a1.12,1.12,0,0,0,.35.06m9.75.37a2.6,2.6,0,0,0,.87-.16,12.16,12.16,0,0,1,1.63-.4l1-.2.65-.15L590,34l-.82-.45c-.52-.28-1-.53-1.43-.76a3.47,3.47,0,0,0-1.38-.5c-.53,0-.86.38-1.51,1.12a1,1,0,0,0-.35.8c.05.27.28.45.65.64a2.63,2.63,0,0,0,1.31.38m-31.19,3.24.48-.17a34,34,0,0,1,9.52-2.12A2.41,2.41,0,0,0,567.85,34l0-.25-.24,0a32.34,32.34,0,0,0-6.07-.64,22,22,0,0,0-2.6.15,1.52,1.52,0,0,0-1,.51A11.58,11.58,0,0,0,555.45,38l-.16.49m-8.89,4.93.78-.51a45.77,45.77,0,0,1,6.09-3.52c.35-.17.54-.33.59-.53a18.59,18.59,0,0,1,1.63-4.29l.44-.84-.79.51c-3,1.94-6.39,4.44-8.33,8.35l-.41.83m23-7.46a2,2,0,0,0,.33,0l.19,0h0c.63,0,1.27,0,1.91,0h2.32l0-.24v-.3l-.19,0-1.12-.3-2.63-.73a1.1,1.1,0,0,0-.35,0c-.52,0-.89.39-1,1a.6.6,0,0,0,.11.51.48.48,0,0,0,.4.16m24.39,2.17-.2-.43c-.63-1.35-1.14-2-2.36-2a5.62,5.62,0,0,0-.92.08c-.62.1-1.25.23-1.89.36l-.1,0c-.19,0-.64.09-.61.58a.7.7,0,0,0,.74.64,35.4,35.4,0,0,1,3.89.5l1,.16.47.08m11.73,6-.37-.83c-2.15-4.81-6-7.58-10.45-7.58H594l.22.37c.11.18.22.34.32.49a3.59,3.59,0,0,1,.47.84,2.76,2.76,0,0,0,2,1.77,21.77,21.77,0,0,1,4.88,2.43c.63.42,1.25.86,1.9,1.33l.92.65.74.52m-36.71-4.95a.93.93,0,0,0,.27,0c1.19-.3,2.38-.57,3.67-.87l1.64-.39,1.48-.35-1.51-.14c-1.69-.16-3.15-.23-4.59-.23H569a.84.84,0,0,0-.66.25,1,1,0,0,0-.11.81l0,.15a.49.49,0,0,1,0,.12c0,.21,0,.69.57.69m-12.94,5.13a1.19,1.19,0,0,0,.53-.17A55.4,55.4,0,0,1,566.26,40c1-.31.78-1,.67-1.45a1.38,1.38,0,0,1-.08-.45.72.72,0,0,0-.14-.58.61.61,0,0,0-.47-.18,1.64,1.64,0,0,0-.37.05l-.17,0A39.68,39.68,0,0,0,556,39.6a1.45,1.45,0,0,0-1.15,1.69L555,42c.08.53.17,1.07.24,1.6,0,.23.11.77.61.77m38.6-1.78.1-.31a3,3,0,0,0,.06-2.2.84.84,0,0,0-.53-.43,19,19,0,0,0-4.8-.74h-.52l-.9,0,.8.43,1.11.59c1.46.78,3,1.58,4.41,2.45l.27.16m-23.67.34a1,1,0,0,0,.55-.19c.84-.53,1.71-1,2.55-1.52l1.34-.78.08,0a.54.54,0,0,0,.38-.59.66.66,0,0,0-.66-.58,1.81,1.81,0,0,0-.38.05l-.89.18c-1,.22-2.1.44-3.14.68l-.61.13c-.5.1-.8.16-.9.42s.12.61.81,1.53l.11.16a.93.93,0,0,0,.76.56M605,51.8l.16-.37a9.93,9.93,0,0,0,.8-4.33,1.18,1.18,0,0,0-.39-.88,25.67,25.67,0,0,0-9.13-5.84l-.3-.11,0,.32c0,.21,0,.42,0,.62a4.72,4.72,0,0,1-.16,1.17,1.31,1.31,0,0,0,.69,1.65,38.59,38.59,0,0,1,3.85,3,48.86,48.86,0,0,1,4.3,4.43l.26.3m-12.58-6.29c.34,0,.54-.29.68-.51a1.73,1.73,0,0,1,.15-.2l.12-.1c.19-.16.45-.39.42-.7a.79.79,0,0,0-.46-.58,30.9,30.9,0,0,0-5-2.51l-1.1-.41.83.82c1.36,1.33,2.57,2.53,3.73,3.82a.9.9,0,0,0,.65.37m-46.39,6.27.31-.3a42.09,42.09,0,0,1,7.45-5.83.78.78,0,0,0,.38-1,13.76,13.76,0,0,1-.49-2.63l-.12-1-.05-.34-.31.15a30.83,30.83,0,0,0-7.26,4.9,1.09,1.09,0,0,0-.32.81,14.28,14.28,0,0,0,.3,4.78l.11.42m14-.44a.92.92,0,0,0,.6-.31,64.87,64.87,0,0,1,8.16-6.68l.33-.27.15-.13.18-.15-.13-.19-.35-.48c-.49-.69-1-1.34-1.44-2l-.13-.11h-.12a1.55,1.55,0,0,0-.4.09l-.09,0a57.8,57.8,0,0,0-10.06,4.24c-.7.38-.66.81-.37,1.35a19.93,19.93,0,0,0,3,4.22.9.9,0,0,0,.64.37m15.42-5.13a.93.93,0,0,0,.76-.55c.21-.35.44-.68.66-1s.63-1,.92-1.45A1.77,1.77,0,0,1,578,43a.87.87,0,0,0,.34-.67.69.69,0,0,0-.34-.47,2.61,2.61,0,0,1-.27-.22,1.43,1.43,0,0,0-.94-.48,1.22,1.22,0,0,0-.63.2c-.91.56-1.85,1.08-2.84,1.64l-1.33.75-.33.19.31.23a18.92,18.92,0,0,0,3,1.88,1.12,1.12,0,0,0,.52.15m13,1.35a5,5,0,0,0,1.87-.68c.26-.13.5-.28.54-.54a.8.8,0,0,0-.32-.64c-.64-.62-1.28-1.24-1.91-1.87l-1.39-1.37a1.78,1.78,0,0,0-.38-.27l-.13-.08-.13-.08-.13.08-.22.11c-.24.11-.51.23-.6.51a.92.92,0,0,0,.16.73,16.12,16.12,0,0,1,.79,1.68l.21.48c.55,1.28.88,1.94,1.64,1.94m-8.15.19c.65,0,.68-.54.72-1.42,0-.31,0-.68.08-1.15V43.87a.85.85,0,0,1,0-.16.71.71,0,0,0-.55-.88,1.71,1.71,0,0,0-.45-.07.91.91,0,0,0-.83.53,27.79,27.79,0,0,1-1.63,2.49c-.24.32-.45.66-.33,1s.52.45.85.52l1,.25a5.31,5.31,0,0,0,1.1.22m3.35.41c.33,0,.75,0,1.28-.07l.17,0,.21,0a.84.84,0,0,0,.75-.29A.87.87,0,0,0,586,47c-.51-1.06-1-2.15-1.49-3.28a1,1,0,0,0-1-.66h-.41c-.74,0-.73.61-.73.9v.14c0,.35,0,.71,0,1.07v.43c-.08,1.27-.12,1.9.22,2.27a1.38,1.38,0,0,0,1.05.31M568.45,57.3h.06a.82.82,0,0,0,.68-.52l.07-.11,1.51-2.41c1.25-2,2.49-4,3.75-5.95a.91.91,0,0,0,.2-.72.93.93,0,0,0-.56-.52,12.9,12.9,0,0,1-2.93-1.84,1.08,1.08,0,0,0-.69-.3,1.28,1.28,0,0,0-.74.3,74.64,74.64,0,0,0-8,6.48,1.08,1.08,0,0,0-.45.78,1.05,1.05,0,0,0,.5.72,34,34,0,0,0,6.09,3.84l.32.14.16.08.06,0m31.88-.39a.88.88,0,0,0,.53-.23,13.91,13.91,0,0,0,3-2.93,2.3,2.3,0,0,0,.23-.37l.1-.17.09-.14-.1-.14-.16-.22-.34-.45A39,39,0,0,0,597,45.9c-.8-.6-1.23-.93-1.68-.93s-.86.4-1.59,1.19l0,.05a.75.75,0,0,0,0,1.15,58.82,58.82,0,0,1,6.06,9.08c.12.22.29.47.59.47m-48.4,4.8.17-.27A54.32,54.32,0,0,1,558.68,53a.72.72,0,0,0,.24-.52.84.84,0,0,0-.32-.55l-.1-.09a19.62,19.62,0,0,1-3.24-4.52c-.11-.22-.28-.56-.64-.56a1,1,0,0,0-.52.2,40,40,0,0,0-7.1,5.72,1,1,0,0,0-.33,1.24,23.62,23.62,0,0,0,5,7.55l.22.23M592,60.35a1.29,1.29,0,0,0,.36-.05,26.5,26.5,0,0,0,5.85-2,1,1,0,0,0,.58-.52,1,1,0,0,0-.14-.72,59.77,59.77,0,0,0-6-9l-.06-.08a.74.74,0,0,0-.63-.4h-.13l0,0a12.86,12.86,0,0,1-2.64,1.05.92.92,0,0,0-.63.4.94.94,0,0,0,0,.77,65.16,65.16,0,0,1,2.73,9.75c0,.22.16.76.74.76m-52.83,2.49.75-1.76a29.94,29.94,0,0,1,4.7-7.65,1,1,0,0,0,.26-1,25.54,25.54,0,0,1-.7-3.8l-.06-.43-.07-.54-.36.41c-2.94,3.36-3.51,7.52-4.07,11.54L539.42,61l-.27,1.89M579,60.51c.76,0,.83-.7.86-1,.23-2.37.48-4.73.73-7.1l.25-2.41c.17-.81-.48-1-.8-1a28.87,28.87,0,0,1-3-.78,1.29,1.29,0,0,0-.44-.08,1,1,0,0,0-.82.55c-2,3.26-3.7,5.92-5.26,8.37a.94.94,0,0,0-.21.79,1,1,0,0,0,.64.51,46.66,46.66,0,0,0,7.71,2.1l.33,0m32.2,3,.28-.4c1.59-2.32-.78-11.41-3.79-14.53l-.35-.36-.07.5a13,13,0,0,1-1.16,3.88.93.93,0,0,0,.21,1l.09.13a37.47,37.47,0,0,1,2.43,4A43.27,43.27,0,0,1,611,63l.16.46M584.07,49.35l-1,0H583c-.63,0-.91.26-1,.88-.2,3.06-.52,6.24-1,9.71a.73.73,0,0,0,.8,1c.81,0,1.62.08,2.45.13l1.06.06,1-.07c.85-.06,1.73-.12,2.61-.16a1.07,1.07,0,0,0,.83-.33,1.15,1.15,0,0,0,.09-.94,82.59,82.59,0,0,0-2.66-9.43,1.11,1.11,0,0,0-1.13-.9h-.22a17.22,17.22,0,0,1-1.87.09M562.44,69.14h0c.46,0,.57-.39.63-.6s0-.11,0-.16a95.59,95.59,0,0,1,4.51-8.88,1.1,1.1,0,0,0,.19-.81,1.05,1.05,0,0,0-.63-.57,29,29,0,0,1-6.3-4,1,1,0,0,0-1.61.14,58.33,58.33,0,0,0-5.84,7.52,1.07,1.07,0,0,0,.2,1.65,43.23,43.23,0,0,0,8.15,5.49l.33.16.17.08,0,0h.1m-15.68,5.2.1-.42a41.22,41.22,0,0,1,4-10.42.82.82,0,0,0-.09-1.09,25.82,25.82,0,0,1-5.19-7.62l-.17-.37-.26.32a23.26,23.26,0,0,0-4.86,10,1.58,1.58,0,0,0,.08,1,27.28,27.28,0,0,0,6,8.3l.31.3m58.33-4.74a1,1,0,0,0,.54-.22,21.62,21.62,0,0,0,4.19-3.71,1.2,1.2,0,0,0,.24-1.24,33,33,0,0,0-4.27-9.29.56.56,0,0,1,0-.08,1.1,1.1,0,0,0-.72-.57l-.21-.06-.09.2,0,.06h0a.65.65,0,0,1-.08.17A15.19,15.19,0,0,1,601.28,58,.74.74,0,0,0,601,59a46.27,46.27,0,0,1,3.49,9.91c.05.2.15.67.56.67M593.26,74l.26,0a35.78,35.78,0,0,0,9.35-3l.07,0c.24-.12.69-.33.52-.92a46,46,0,0,0-3.57-10.41.56.56,0,0,0-.51-.39,1,1,0,0,0-.47.16,27.29,27.29,0,0,1-6.51,2.22.69.69,0,0,0-.63.9,67.1,67.1,0,0,1,.86,10.72c0,.19,0,.78.63.78M577,73.87c.49,0,.58-.49.64-.8l0-.08c.57-2.83,1-5.73,1.48-8.54l.25-1.61c.14-.85-.33-1-.88-1.1a40.43,40.43,0,0,1-8.39-2.32,1.28,1.28,0,0,0-.51-.13.79.79,0,0,0-.69.49c-1.89,3.4-3.42,6.44-4.69,9.3a.92.92,0,0,0-.08.74,1,1,0,0,0,.63.47l1.32.52c.61.25,1.25.5,1.88.73a55.08,55.08,0,0,0,8.82,2.3l.2,0m8.42-11.56c-1.12,0-2.3-.05-3.72-.16h-.17a.8.8,0,0,0-.89.82c-.44,3.29-1,6.64-1.71,10.23A.92.92,0,0,0,579,74a1.06,1.06,0,0,0,.79.31c2.22.23,4.09.34,6.23.36h.36c.63,0,1.38,0,2.18-.11.56,0,1.15-.09,1.74-.12a1,1,0,0,0,1-1.12,73.49,73.49,0,0,0-.81-10.38c0-.28-.13-.88-.82-.88l-.22,0a28.8,28.8,0,0,1-4.08.27M558.36,82c.49,0,.59-.5.63-.72a56.63,56.63,0,0,1,3-10,.8.8,0,0,0-.45-1.18,39.46,39.46,0,0,1-8.56-5.72.92.92,0,0,0-.59-.29c-.33,0-.49.29-.64.59a39,39,0,0,0-3.05,7.51c-.17.6-.33,1.2-.48,1.81l-.22.84a1,1,0,0,0,.49,1l.1.08a47.24,47.24,0,0,0,9.29,5.94,1.27,1.27,0,0,0,.52.15m46.91-.76.4-.23c4.52-2.53,6.56-8.18,5-13.75l-.12-.42-.3.31a22.48,22.48,0,0,1-4.58,3.7,1.05,1.05,0,0,0-.51,1.25,31.28,31.28,0,0,1,.33,6.09c0,.58-.06,1.16-.11,1.75,0,.28,0,.56-.05.84l0,.46m-59.34,1.88v-.62a40.17,40.17,0,0,1,.46-6.11,1.12,1.12,0,0,0-.48-1.1l0,0A33.15,33.15,0,0,1,542,70.87c-.34-.47-.67-1-1-1.43l-.45-.66-.45-.65v.79A18.77,18.77,0,0,0,545.5,82.7l.43.45m28,3.72c.55,0,.66-.44.74-.73l0-.09c.89-3.28,1.65-6.6,2.39-9.81a.87.87,0,0,0-.84-1.23,52.08,52.08,0,0,1-11.9-3.55,1.24,1.24,0,0,0-.51-.13c-.47,0-.64.45-.72.64a67.16,67.16,0,0,0-2.89,9.91,1.06,1.06,0,0,0,.8,1.39A59.42,59.42,0,0,0,569.46,86c1,.22,1.95.42,2.93.62l1.34.28h.15m17.82-.08a1.81,1.81,0,0,0,.36-.05,37.27,37.27,0,0,0,10.87-3.8,1.59,1.59,0,0,0,.9-1.25,30.25,30.25,0,0,0,.36-4.77,33,33,0,0,0-.24-4v-.06c0-.3-.09-.71-.52-.71a1.12,1.12,0,0,0-.46.14,35.57,35.57,0,0,1-9.54,2.92.93.93,0,0,0-.91,1,48.45,48.45,0,0,1-1.37,9.52.9.9,0,0,0,.06.8.58.58,0,0,0,.5.21m-9.08.78h.65a47.34,47.34,0,0,0,5.32-.33h.09a.92.92,0,0,0,1-.71,51.46,51.46,0,0,0,1.58-10.1.82.82,0,0,0-.16-.62.63.63,0,0,0-.47-.17h-.14a45.13,45.13,0,0,1-4.71.24,55.92,55.92,0,0,1-6.42-.38l-.19,0c-.56,0-.72.37-.81.76-.84,3.62-1.62,6.86-2.38,9.9a.9.9,0,0,0,0,.77,1,1,0,0,0,.76.31c2.35.23,4.16.34,5.87.34m-25.21,3.64c.48,0,.5-.56.51-.74a57.53,57.53,0,0,1,.52-6.1.88.88,0,0,0-.54-1.07A47.8,47.8,0,0,1,548,77.15l-.34-.27-.07.43a34.57,34.57,0,0,0-.29,6.77,1.29,1.29,0,0,0,.51.94,40.66,40.66,0,0,0,9.1,6,1.2,1.2,0,0,0,.51.16m46.56-4,.61-.84a30.19,30.19,0,0,0,2.56-3.89l.28-.52-.57.17c-2,.6-2.43,2.2-2.73,4.07l-.15,1m-16.38,8.52.47-.09a40.26,40.26,0,0,0,9.69-3.35c3.1-1.45,4.17-4,5.33-7.46l.2-.57-.54.27a40.62,40.62,0,0,1-11.49,3.67h-.08a.88.88,0,0,0-.85.6,49.15,49.15,0,0,1-2.53,6.48l-.2.44m-28.33-6.62h-.06v.23c0,.15,0,.31,0,.46a5.46,5.46,0,0,1,0,.91,1.61,1.61,0,0,0,1.25,2,62.47,62.47,0,0,0,10.42,2.93,2.5,2.5,0,0,0,.35,0c.57,0,.76-.41.87-.77.55-1.93,1.12-3.8,1.7-5.59a1.06,1.06,0,0,0,0-.87A1.07,1.07,0,0,0,573,88a56.76,56.76,0,0,1-12.24-3.45,1.29,1.29,0,0,0-.49-.12c-.37,0-.58.26-.63.77l-.28,3-.08.88M558,96V95.1a3.11,3.11,0,0,1,0-.54,2,2,0,0,0-1.46-2.29,29.39,29.39,0,0,1-5-2.78c-.77-.52-1.55-1.07-2.3-1.61l-1-.73-1.44-1,1.1,1.37a33.53,33.53,0,0,0,9.72,8.25L558,96m22,.4a44.44,44.44,0,0,0,5.23-.3h.12a.9.9,0,0,0,.85-.46,39.19,39.19,0,0,0,2.78-6.74l.12-.36-.38,0a51.63,51.63,0,0,1-5.74.31,62.34,62.34,0,0,1-6.8-.39H576c-.56,0-.75.39-.86.77-.61,2.09-1.17,4-1.71,5.68a.94.94,0,0,0,0,.82,1,1,0,0,0,.75.34,56.2,56.2,0,0,0,5.8.31M559.33,95.3c-.28,1.19.59,1.73,1.48,2.11a39.35,39.35,0,0,0,8.51,2.59l.16,0a1.67,1.67,0,0,0,.39.06.64.64,0,0,0,.65-.55,7.1,7.1,0,0,1,.24-.69,3.4,3.4,0,0,0,.35-1.69c0-.23-.29-.31-.57-.35a54.88,54.88,0,0,1-10.41-2.93,1.17,1.17,0,0,0-.4-.09.4.4,0,0,0-.33.14.72.72,0,0,0-.13.57c0,.15,0,.31,0,.5l0,.3m26.59,3.77.45-.13a21,21,0,0,0,5.37-2.31l1.24-.76-1.42.31-1.12.25a24.88,24.88,0,0,1-2.57.52,2.05,2.05,0,0,0-1.81,1.68l-.14.44m-10.66,1.47a46.47,46.47,0,0,0,7.09-.56,3.12,3.12,0,0,0,2.49-2.16l.18-.38-.42,0c-1.69.12-3.25.17-4.76.17a50.42,50.42,0,0,1-5.32-.26c-.37,0-.68-.07-.92-.07-.88,0-1.05.44-1.47,1.48L572,99c-.21.52-.23.86-.07,1.1s.63.36,1.1.39c.73,0,1.46.05,2.19.05m.52-74.46a38,38,0,0,0-.16,76h0a38,38,0,0,0,.17-76Zm-.19,3.48A4.65,4.65,0,0,1,572,28.09a22.86,22.86,0,0,1,3.32-.2l2.16,0c.83,0,.93.73,1.32,1.28a22.74,22.74,0,0,1-3.21.37Zm5.64-.15c-.53,0-.57-.64-.86-1.19a23.08,23.08,0,0,1,6.45,1.57,3.11,3.11,0,0,1-1.47.35c-1.35,0-2.65-.73-4-.73h-.12Zm-12.3,3a1.65,1.65,0,0,1-.31,0,40.63,40.63,0,0,0-7.24-.8,7.89,7.89,0,0,1,5.91-2.41,10.5,10.5,0,0,1,5,1.31,15.25,15.25,0,0,0-2.92,1.78.67.67,0,0,1-.45.16Zm25.77,1.8A5.76,5.76,0,0,1,591.21,33a29.3,29.3,0,0,0-3-1.78,2.1,2.1,0,0,1,1.3-.48,2.56,2.56,0,0,1,1.12.29,42.43,42.43,0,0,1,5.37,3,8,8,0,0,1-1.26.1ZM578.44,31.1h.82c.79,0,.69.69.84,1.14s.6,1,.19,1.27a.57.57,0,0,1-.36.13c-.37,0-.67-.43-1-.7l-1.81-1.58,0-.26Zm4.23,2.51-.13,0c-.61-.2-.49-1.4-.82-2.26a9.83,9.83,0,0,1,2.41.46c0,.12,0,.24-.1.29-.54.44-.84,1.53-1.36,1.53Zm-5.94,1a.68.68,0,0,1-.27-.05c-.7-.23-1.4-.48-2.1-.7-.91-.3-1.83-.57-2.86-.89a8.33,8.33,0,0,1,2.62-1.24.85.85,0,0,1,.22,0A1,1,0,0,1,575,32c.69.53,1.39,1.06,2.06,1.62.2.16.66.31.43.64a.86.86,0,0,1-.71.38Zm9.75.37a2.39,2.39,0,0,1-1.19-.35c-.62-.33-.69-.52-.23-1,.63-.72.91-1,1.32-1a3.33,3.33,0,0,1,1.27.48c.68.33,1.34.72,2.24,1.2a24.69,24.69,0,0,0-2.63.62,2.26,2.26,0,0,1-.78.14Zm-30.79,3.08a11.09,11.09,0,0,1,2.46-4.15,1.29,1.29,0,0,1,.87-.44,22.25,22.25,0,0,1,2.57-.14,31.32,31.32,0,0,1,6,.64,2.15,2.15,0,0,1-2.33,2,34.93,34.93,0,0,0-9.59,2.13Zm-.42-3.63a19.8,19.8,0,0,0-1.66,4.35c0,.15-.27.28-.45.36A48.07,48.07,0,0,0,547,42.7c1.81-3.65,4.85-6.09,8.23-8.25Zm14.1,1.26c-.18,0-.31-.07-.26-.38s.24-.84.75-.84a1,1,0,0,1,.28,0l3.75,1v.1H571.8c-.64,0-1.27,0-1.91,0h0c-.13,0-.35.07-.51.07Zm24,2.1a46.1,46.1,0,0,0-4.9-.67c-.26,0-.49-.15-.5-.4s.3-.3.52-.34c.62-.13,1.24-.27,1.87-.36a6,6,0,0,1,.88-.08c1,0,1.5.47,2.13,1.85Zm11.56,5.63c-1-.7-1.89-1.37-2.83-2A21.64,21.64,0,0,0,597.13,39a2.46,2.46,0,0,1-1.86-1.6,8,8,0,0,0-.81-1.39h.21c5.06,0,8.44,3.44,10.22,7.44ZM568.78,39c-.35,0-.3-.34-.33-.59-.05-.42-.23-.91.5-.93h.79c1.44,0,2.9.07,4.56.23-1.95.46-3.63.84-5.31,1.26l-.21,0Zm-12.94,5.13c-.23,0-.31-.21-.36-.55-.11-.77-.23-1.53-.35-2.29s.27-1.15,1-1.41a38.81,38.81,0,0,1,9.62-2.19c.15,0,.34-.07.51-.07s.4.1.36.49c-.05.56.65,1.34-.42,1.68a55.51,55.51,0,0,0-9.92,4.2,1.07,1.07,0,0,1-.42.14Zm38.46-1.91c-1.81-1.08-3.67-2-5.54-3h.51a19,19,0,0,1,4.74.73c.58.15.68,1.08.29,2.32Zm-23.53.47c-.34,0-.49-.38-.67-.62-1.22-1.6-1-1.32.55-1.68,1.34-.32,2.69-.59,4-.87a1.86,1.86,0,0,1,.33,0c.18,0,.34.07.42.39s-.19.27-.35.36c-1.3.77-2.62,1.51-3.89,2.31a.79.79,0,0,1-.42.15ZM605,51.34a48.28,48.28,0,0,0-4.33-4.46,36.52,36.52,0,0,0-3.87-3.05c-.53-.36-.8-.68-.59-1.37a9.46,9.46,0,0,0,.22-1.84,25.41,25.41,0,0,1,9,5.78,1,1,0,0,1,.31.71,9.7,9.7,0,0,1-.78,4.23Zm-58.77,0a14.35,14.35,0,0,1-.3-4.7.87.87,0,0,1,.25-.64,30.61,30.61,0,0,1,7.2-4.87,22,22,0,0,0,.62,3.67.53.53,0,0,1-.27.68,42.5,42.5,0,0,0-7.5,5.86Zm46.26-6c-.13,0-.28-.08-.47-.29-1.18-1.32-2.44-2.57-3.73-3.83a31.39,31.39,0,0,1,5,2.49c.71.43.11.75-.13,1s-.36.64-.66.64Zm-32.38,5.83c-.15,0-.29-.11-.46-.29a20,20,0,0,1-3-4.16c-.25-.47-.27-.73.27-1a57.08,57.08,0,0,1,10-4.22,2,2,0,0,1,.42-.11h.05c.6.8,1.18,1.61,1.78,2.46a5.22,5.22,0,0,1-.47.38,66.48,66.48,0,0,0-8.18,6.71.68.68,0,0,1-.43.24ZM575.48,46a.93.93,0,0,1-.41-.12,21.13,21.13,0,0,1-3-1.86c1.51-.86,2.86-1.59,4.18-2.4a1,1,0,0,1,.5-.16c.45,0,.74.43,1.07.66.56.37-.06.7-.22,1-.49.84-1.07,1.64-1.58,2.47-.17.26-.32.43-.55.43Zm13,1.35c-.58,0-.86-.52-1.41-1.79a19,19,0,0,0-1-2.19c-.41-.71.15-.76.58-1a2.72,2.72,0,0,1,.46.32c1.11,1.07,2.19,2.17,3.31,3.24.39.38.3.55-.16.78a4.92,4.92,0,0,1-1.76.65Zm-8.15.19a18.83,18.83,0,0,1-2.09-.46c-.82-.19-.84-.48-.37-1.11a28.65,28.65,0,0,0,1.64-2.52.68.68,0,0,1,.62-.4,2,2,0,0,1,.39.06c.49.12.35.49.36.8s0,.87,0,1.31c-.16,1.77,0,2.32-.55,2.32Zm3.35.41c-1.17,0-1.14-.41-1-2.31,0-.51,0-1,0-1.51s-.09-.78.49-.8l.4,0a.71.71,0,0,1,.75.51c.45,1.11,1,2.2,1.49,3.29.26.54.08.73-.46.73-.13,0-.26,0-.4,0-.52,0-.94.07-1.26.07ZM568.5,57.05l-.48-.23a33.6,33.6,0,0,1-6-3.8c-.54-.43-.51-.68,0-1.13a74.08,74.08,0,0,1,8-6.46,1.12,1.12,0,0,1,.6-.25.85.85,0,0,1,.53.25,14,14,0,0,0,3,1.87c.48.22.57.4.26.88-1.77,2.77-3.51,5.57-5.26,8.36-.14.21-.23.5-.55.51Zm31.83-.39c-.13,0-.25-.1-.37-.34a59.3,59.3,0,0,0-6.08-9.12c-.25-.3-.31-.48,0-.82.73-.78,1.07-1.16,1.46-1.16s.76.3,1.53.88a38.78,38.78,0,0,1,6.61,6.32c.17.21.32.43.49.66a5.31,5.31,0,0,1-.32.53,14.33,14.33,0,0,1-2.94,2.88.69.69,0,0,1-.38.17Zm-48.44,4.65a23.46,23.46,0,0,1-5-7.48c-.18-.43,0-.68.28-1a40.23,40.23,0,0,1,7.06-5.68.72.72,0,0,1,.38-.16c.19,0,.29.17.42.43A19.7,19.7,0,0,0,558.32,52c.21.23.56.41.18.82a54.35,54.35,0,0,0-6.61,8.47ZM592,60.1c-.28,0-.41-.15-.49-.57a66.23,66.23,0,0,0-2.75-9.77c-.18-.5-.09-.72.43-.85a13.1,13.1,0,0,0,2.69-1.06h.06c.27,0,.37.23.5.39a59.6,59.6,0,0,1,6,8.94c.27.5.12.68-.33.9a26.25,26.25,0,0,1-5.79,2,1.25,1.25,0,0,1-.31,0ZM539.67,61c.64-4.46,1-9.06,4.19-12.71a28.31,28.31,0,0,0,.76,4.26.78.78,0,0,1-.21.74A30.31,30.31,0,0,0,539.67,61ZM579,60.26l-.28,0A45.43,45.43,0,0,1,571,58.14c-.58-.21-.62-.43-.3-.93Q573.38,53,576,48.85c.18-.29.34-.44.61-.44a1.08,1.08,0,0,1,.36.07,27.86,27.86,0,0,0,3,.78c.44.1.71.22.61.72q-.51,4.77-1,9.54c-.05.49-.2.74-.61.74Zm32.27,2.68a42.19,42.19,0,0,0-2.21-5.3,39,39,0,0,0-2.44-4.06c-.18-.26-.47-.51-.28-.9a12.79,12.79,0,0,0,1.17-4c2.9,3,5.27,12,3.76,14.21ZM584.07,49.6a17.26,17.26,0,0,0,1.9-.09h.19c.5,0,.72.24.89.74a82.49,82.49,0,0,1,2.66,9.4c.14.63,0,.93-.69,1-1.24,0-2.48.15-3.67.23s-2.34-.15-3.48-.19c-.49,0-.63-.2-.57-.69.43-3.23.77-6.47,1-9.73,0-.51.24-.64.7-.64h.07l1,0ZM562.45,68.89h0l-.49-.24a42.3,42.3,0,0,1-8.1-5.46c-.54-.45-.52-.78-.17-1.33a58.43,58.43,0,0,1,5.83-7.48c.24-.27.43-.42.65-.42a1,1,0,0,1,.61.3,28.88,28.88,0,0,0,6.35,4.08c.56.27.65.47.33,1a96.7,96.7,0,0,0-4.52,8.91c-.1.23-.09.61-.45.61Zm42.64.46c-.16,0-.24-.17-.31-.47a47.34,47.34,0,0,0-3.51-10c-.15-.31-.19-.53.15-.76a15.36,15.36,0,0,0,3.4-3.14,1.08,1.08,0,0,0,.13-.29.93.93,0,0,1,.63.55,32.71,32.71,0,0,1,4.24,9.22.94.94,0,0,1-.19,1,21.22,21.22,0,0,1-4.14,3.66.78.78,0,0,1-.4.18Zm-58.47,4.51a27.1,27.1,0,0,1-6-8.22,1.43,1.43,0,0,1-.07-.89,23.1,23.1,0,0,1,4.82-9.86,26.57,26.57,0,0,0,5.24,7.7c.28.28.21.5.05.79a41.37,41.37,0,0,0-4.07,10.48Zm46.64-.12c-.3,0-.38-.17-.38-.53A66.84,66.84,0,0,0,592,62.45c-.06-.38.06-.54.44-.62A26.84,26.84,0,0,0,599,59.59a1,1,0,0,1,.36-.13c.11,0,.2.06.29.25a46.06,46.06,0,0,1,3.55,10.35c.12.44-.19.54-.46.68a35.74,35.74,0,0,1-9.29,3l-.21,0ZM577,73.62l-.14,0a55.68,55.68,0,0,1-8.8-2.3c-1.07-.38-2.12-.84-3.19-1.24-.45-.17-.65-.33-.41-.87,1.41-3.18,3-6.25,4.68-9.29.14-.26.29-.36.47-.36a1.31,1.31,0,0,1,.42.11A40.5,40.5,0,0,0,578.48,62c.51.09.78.18.68.81-.55,3.38-1.06,6.78-1.74,10.15-.07.34-.11.67-.41.67Zm8.42-11.06a29.86,29.86,0,0,0,4.11-.27l.19,0c.42,0,.51.26.57.67a73.17,73.17,0,0,1,.81,10.35c0,.61-.23.84-.81.86-1.42.07-2.83.23-3.9.23h-.35a62,62,0,0,1-6.22-.36c-.52-.06-.78-.13-.65-.77.68-3.4,1.26-6.81,1.72-10.24.06-.46.23-.61.64-.61h.15c1.25.09,2.49.16,3.74.16ZM558.36,81.78a.94.94,0,0,1-.41-.13,47.52,47.52,0,0,1-9.24-5.9c-.25-.21-.58-.39-.5-.82.23-.88.44-1.76.69-2.64a38.81,38.81,0,0,1,3-7.45c.13-.26.23-.46.42-.46a.73.73,0,0,1,.42.23,40.28,40.28,0,0,0,8.62,5.76c.41.2.5.41.32.86a58.34,58.34,0,0,0-3,10c-.06.34-.16.52-.38.52Zm47.19-1c.05-.9.13-1.75.16-2.6a31.55,31.55,0,0,0-.34-6.14.82.82,0,0,1,.4-1,22.77,22.77,0,0,0,4.63-3.73c1.55,5.43-.4,11-4.85,13.47Zm-59.87,1.7a18.58,18.58,0,0,1-5.37-13.61c.48.7,1,1.41,1.45,2.1a33.19,33.19,0,0,0,3.94,4.44c.27.25.52.46.44.92a41.11,41.11,0,0,0-.46,6.15Zm28.2,4.09h-.12c-1.41-.3-2.83-.58-4.24-.9A58.1,58.1,0,0,1,561.06,83c-.57-.22-.78-.47-.65-1.11a67.28,67.28,0,0,1,2.89-9.87c.12-.32.25-.48.48-.48a1,1,0,0,1,.41.11,52.47,52.47,0,0,0,12,3.57c.59.1.77.31.63.92-.75,3.28-1.5,6.56-2.38,9.81-.08.31-.13.63-.52.63Zm17.82-.08c-.36,0-.44-.21-.32-.7a49.09,49.09,0,0,0,1.38-9.57c0-.51.23-.68.7-.76a35.92,35.92,0,0,0,9.61-3,1,1,0,0,1,.35-.11c.22,0,.24.24.28.55a34.23,34.23,0,0,1,.24,3.92,28.81,28.81,0,0,1-.36,4.73,1.34,1.34,0,0,1-.77,1.07A37.42,37.42,0,0,1,592,86.5a2.19,2.19,0,0,1-.31,0Zm-9.08.78c-2,0-3.9-.15-5.85-.34-.55-.06-.74-.16-.59-.77.82-3.29,1.61-6.6,2.38-9.9.1-.4.22-.57.57-.57h.16a55.82,55.82,0,0,0,6.45.39,44.26,44.26,0,0,0,4.74-.24h.11c.35,0,.4.21.38.53a51,51,0,0,1-1.57,10c-.13.5-.49.49-.84.53a49.24,49.24,0,0,1-5.29.32h-.65ZM557.41,91a1.07,1.07,0,0,1-.4-.13,41.45,41.45,0,0,1-9-6,1.05,1.05,0,0,1-.42-.77,34.23,34.23,0,0,1,.29-6.72,48.48,48.48,0,0,0,10,6.18.66.66,0,0,1,.4.8,52.46,52.46,0,0,0-.53,6.12c0,.36-.09.51-.26.51Zm49.51-8.61a32.11,32.11,0,0,1-2.55,3.87c.29-1.84.67-3.31,2.55-3.87Zm-35.71,13a2,2,0,0,1-.31,0,61.48,61.48,0,0,1-10.37-2.92c-.87-.33-1.25-.75-1.1-1.68a8.26,8.26,0,0,0,0-1.41h0c.12-1.37.25-2.74.38-4.12,0-.36.14-.54.38-.54a1,1,0,0,1,.39.1,57.13,57.13,0,0,0,12.3,3.47c.67.11.8.33.6,1-.6,1.85-1.16,3.72-1.7,5.59-.13.42-.3.59-.63.59Zm31.64-10.64c-1.06,3.14-2.09,5.86-5.2,7.32A40,40,0,0,1,588,95.37a50.78,50.78,0,0,0,2.54-6.51c.12-.38.44-.39.73-.44a40.51,40.51,0,0,0,11.56-3.69ZM557.74,95.54a33.28,33.28,0,0,1-9.64-8.18c1.11.78,2.21,1.58,3.33,2.34a30.79,30.79,0,0,0,5,2.8,1.78,1.78,0,0,1,1.31,2c0,.26,0,.53,0,1Zm22.21.58a55.62,55.62,0,0,1-5.77-.31c-.61-.06-.73-.26-.55-.83q.89-2.83,1.71-5.69c.11-.38.25-.59.62-.59h.14a62.27,62.27,0,0,0,6.83.39,53.8,53.8,0,0,0,5.77-.31,41.18,41.18,0,0,1-2.77,6.69c-.17.34-.48.31-.78.35a45.31,45.31,0,0,1-5.2.29Zm-10.08,3.72a2.92,2.92,0,0,1-.5-.09,38.69,38.69,0,0,1-8.47-2.57c-.95-.4-1.57-.87-1.31-1.86l-.07-.84c0-.3,0-.44.21-.44a.88.88,0,0,1,.31.07,53.49,53.49,0,0,0,10.46,2.94c.13,0,.35.08.36.14a6.1,6.1,0,0,1-.58,2.29c-.08.29-.23.36-.41.36Zm21.74-3.42a21,21,0,0,1-5.31,2.28c.29-.9.69-1.39,1.61-1.51,1.24-.15,2.47-.5,3.7-.77Zm-16.35,3.87c-.72,0-1.45,0-2.18-.05s-1.2-.17-.81-1.14c.5-1.23.57-1.54,1.33-1.54.23,0,.52,0,.89.07a52.94,52.94,0,0,0,5.35.26c1.57,0,3.16-.06,4.77-.17a2.85,2.85,0,0,1-2.3,2,45.17,45.17,0,0,1-7,.56Z"/><path d="M388.26,43.41a6.11,6.11,0,0,0-2.16-4.88c-2.56-2.27-5-4.6-7.54-6.92a6.24,6.24,0,0,0-4.5-1.78c-.9,0-1.81,0-2.71,0l-65.93.14c-7.13,0-14.26.09-21.39,0a7.6,7.6,0,0,0-5.78,2.33c-2,2-4.06,3.9-6.21,5.69a7.36,7.36,0,0,0-2.77,6.17c.06,5.82,0,11.63.06,17.46,0,3.55.12,7.11.17,10.67,0,1.51,0,3,0,4.52a4.81,4.81,0,0,0,1.62,3.75c1.78,1.6,3.57,3.22,5.33,4.85.49.46.92,1,1.54,1.61L278,87a4.76,4.76,0,0,1,1.24,1c4.32-1.42,8.62-2.9,12.93-4.34,5.61-1.88,11.23-3.73,16.85-5.59.61-.2,1.2-.43,1.8-.66l0-.13h-1.58c-.68-.74-1.44-1.52-2.16-2.34a4.33,4.33,0,0,1-1.06-2.9c0-4.62,0-9.24,0-13.86a4.34,4.34,0,0,1,1.15-3c.4-.45.84-.87,1.21-1.34a5.17,5.17,0,0,1,4.48-2c10.29.06,20.57.12,30.85,0,2.56,0,4.51.63,6,2.71l.2.22a4.82,4.82,0,0,1,1.51,3.65c0,4.52,0,9-.07,13.54a4.7,4.7,0,0,1-.77,2.52,27.6,27.6,0,0,1-2.74,3l1,.24a20.19,20.19,0,0,1,1.55-1.94A5.77,5.77,0,0,0,352,71.57c0-4.32,0-8.62,0-12.94a7,7,0,0,0-1.71-4.37c-1.79-2.35-4-3.08-6.93-3-10.18.17-20.36.12-30.55.07a5.61,5.61,0,0,0-5,2.25,10.78,10.78,0,0,1-.92,1,5.36,5.36,0,0,0-1.51,3.82l0,13.55a5.24,5.24,0,0,0,1.38,3.56l1.94,2.23-5.07,1.52a29.17,29.17,0,0,1-2.8-3.14,5.11,5.11,0,0,1-.79-2.67c0-5.78,0-11.55.07-17.31a4.07,4.07,0,0,1,1.25-3,22.86,22.86,0,0,0,2-2.08A5.68,5.68,0,0,1,308.29,49c9.9.08,19.78,0,29.66,0,3.77,0,7.53.06,11.29,0a5.27,5.27,0,0,1,4.52,1.93c.66.82,1.43,1.54,2.16,2.3a4.17,4.17,0,0,1,1.22,3q0,8.73,0,17.47a4.1,4.1,0,0,1-1.23,3l-2.21,2.16,1.3.29a14.13,14.13,0,0,1,1.22-1.43A6.13,6.13,0,0,0,358,73.07q0-8.13,0-16.27a5.92,5.92,0,0,0-1.86-4.59c-.84-.79-1.62-1.64-2.4-2.49a4.65,4.65,0,0,0-3.34-1.52c-.44,0-.9,0-1.34,0-13.27,0-26.52.09-39.77,0-3,0-5.4.7-7.21,3.14a11.81,11.81,0,0,1-1.21,1.34,4.82,4.82,0,0,0-1.45,3.53q0,8.66,0,17.32a5.28,5.28,0,0,0,1.64,3.91c.57.55,1,1.19,1.68,1.9a20.54,20.54,0,0,1-4.37,1.45,14.62,14.62,0,0,1-3.54-3.57,4.26,4.26,0,0,1-.58-2.3q0-10.31,0-20.62A4.37,4.37,0,0,1,295.67,51c1.13-1.12,2.3-2.24,3.38-3.43A4.93,4.93,0,0,1,302.94,46c7.83,0,15.66,0,23.49,0,9,0,18.07.06,27.12,0a6.34,6.34,0,0,1,5.31,2.24,34.3,34.3,0,0,0,2.73,2.8,4.39,4.39,0,0,1,1.34,3.24q0,10.32,0,20.63a4.07,4.07,0,0,1-1.17,3c-.75.73-1.51,1.47-2.27,2.19l1.53.34a11.41,11.41,0,0,1,1-1.13,6.27,6.27,0,0,0,2-5q-.06-9.88,0-19.74a5.78,5.78,0,0,0-1.81-4.44,37.25,37.25,0,0,1-2.85-2.91A6.43,6.43,0,0,0,354.07,45c-11.74.08-23.49,0-35.24.07-5.27,0-10.54.05-15.81,0a6,6,0,0,0-4.91,2.14c-.89,1-1.84,2-2.83,2.92a5.64,5.64,0,0,0-1.87,4.43c0,4.36,0,8.73,0,13.09,0,2.17,0,4.32,0,6.48a6.41,6.41,0,0,0,2.07,5.14c.57.52,1.09,1.11,1.75,1.81l-3.85,1.25A24.38,24.38,0,0,1,289,78a3.46,3.46,0,0,1-.51-2c0-8.09,0-16.16,0-24.25a4.15,4.15,0,0,1,1.27-3.11c1.57-1.54,3.14-3.09,4.69-4.66a4.83,4.83,0,0,1,3.7-1.37c9.89,0,19.77,0,29.66.05,10.19,0,20.38,0,30.57,0a6.2,6.2,0,0,1,5.08,2.06c1.22,1.38,2.6,2.66,3.93,3.94a4,4,0,0,1,1.29,3.09q0,12,0,24.09a3.71,3.71,0,0,1-1.19,2.84l-2.73,2.58,1.86.42c.61-.67,1.24-1.32,1.88-2A5.16,5.16,0,0,0,370.09,76q0-12,0-24.09a5.5,5.5,0,0,0-1.76-4.16c-1.64-1.56-3.24-3.16-4.84-4.74a4.86,4.86,0,0,0-3.38-1.45c-.65,0-1.31,0-2,0q-29.81,0-59.63.05a6.63,6.63,0,0,0-5.45,2.32,44.9,44.9,0,0,1-3.73,3.7,5.41,5.41,0,0,0-1.91,4.11c0,5.52,0,11,.06,16.56,0,2.51.09,5,0,7.53a5,5,0,0,0,1.68,4c.91.82,1.74,1.76,2.82,2.87l-3.61,1.18c-1-.94-2-1.8-2.86-2.73-2.44-2.49-2.93-1.9-2.88-6.62.1-8.43.06-16.87.06-25.3A3.75,3.75,0,0,1,284,46.24c2-1.86,3.93-3.74,5.87-5.63a4.06,4.06,0,0,1,2.56-1.15c.6,0,1.2-.05,1.81-.05l51.5.05c6.12,0,12.25.07,18.36.06A4.76,4.76,0,0,1,367.73,41c1.69,1.71,3.42,3.39,5.21,5a4.42,4.42,0,0,1,1.53,3.59c0,3.81,0,7.63,0,11.44,0,5,0,9.94,0,14.91a4.54,4.54,0,0,1-1.66,3.83c-1,.86-2,1.77-2.93,2.68l2.3.5a5.38,5.38,0,0,1,.34-.43c.66-.69,1.35-1.35,2-2a4.88,4.88,0,0,0,1.59-3.62c0-9.14,0-18.28,0-27.41a5.47,5.47,0,0,0-1.86-4.27c-1.8-1.67-3.6-3.36-5.32-5.11a6.29,6.29,0,0,0-4.84-2c-11.3,0-22.59,0-33.89,0-12.24,0-24.49,0-36.74,0a6.7,6.7,0,0,0-5.22,2.18c-1.5,1.56-3.06,3-4.65,4.49a6.42,6.42,0,0,0-2.23,5q.14,13.34.16,26.66a6,6,0,0,0,2.29,4.55c1,.93,2,1.91,3.25,3.07l-3.1,1c-2.19-2-4.31-4-6.36-5.92a3.56,3.56,0,0,1-.81-2.68c0-3.56,0-7.13,0-10.7q0-9,0-18.07a9.25,9.25,0,0,1,.14-2.24,4.33,4.33,0,0,1,1-2c2.17-2.15,4.48-4.18,6.67-6.31a5.6,5.6,0,0,1,4.22-1.59q19.28.06,38.55.06c13.41,0,26.81.05,40.22,0A7,7,0,0,1,373.28,38c1.67,1.79,3.54,3.41,5.36,5.06a4.5,4.5,0,0,1,1.59,3.57q-.06,14.76,0,29.52A4.58,4.58,0,0,1,378.53,80c-1.31,1.11-2.56,2.29-3.85,3.47l2.73.6c.91-.94,1.75-1.86,2.66-2.68a6.32,6.32,0,0,0,2.13-5.08q-.07-14.62,0-29.23a6.42,6.42,0,0,0-2.35-5.26c-2-1.76-4-3.65-5.92-5.56a6.67,6.67,0,0,0-5-2.05q-40.2.08-80.42.08a6.54,6.54,0,0,0-4.87,2c-2.14,2.12-4.34,4.18-6.55,6.23a5.24,5.24,0,0,0-1.75,4.13q.13,15.21.18,30.41a5.77,5.77,0,0,0,2.08,4.17c1.38,1.38,2.63,2.88,4,4.41l-1.46.64a17.15,17.15,0,0,1-1.74-1.19c-2-1.83-3.95-3.7-6-5.52a4.16,4.16,0,0,1-1.4-3.33q.06-16,.06-31.93a5.88,5.88,0,0,1,2.11-4.88c2.43-2,4.71-4.22,7-6.38a4.79,4.79,0,0,1,2.86-1.2,21.18,21.18,0,0,1,2.26-.06q43.46,0,86.9.05a7.43,7.43,0,0,1,5.79,2.28c1.93,2,4,3.79,6.09,5.61a5,5,0,0,1,1.76,4.08q-.1,15.9,0,31.78A5,5,0,0,1,384,79.88c-1.75,1.41-3.4,3-5.1,4.46l-.07.07,3.1.68c1.36-1.34,2.74-2.68,4.17-4a6.25,6.25,0,0,0,2.16-5Q388.2,59.76,388.26,43.41Z"/><polygon points="347.76 77.51 381.94 85.09 381.25 86.19 347.76 78.12 347.76 77.51"/><path class="cls-16" d="M825.31,32.88c.84-.13,1.54-.23,1.93-1.29.47-1.26,5.35-1.28,6.09-.13a2.32,2.32,0,0,1,.27,1.32V64c0,1.56-.53,2.06-2.11,2.07-.75,0-1.49,0-2.24,0-1.09,0-2-.18-2.25-1.43-.12-.57-.61-.47-1-.58-6.28-1.94-10.27-6.07-11.58-12.51a15.35,15.35,0,0,1,4.25-14.38A5.63,5.63,0,0,0,820.24,34a46,46,0,0,1,9.21-20.75c4.81-6,10.77-10.42,18.41-12.06,9.84-2.11,18.55.48,26.06,7,8,7,12.26,16.06,14.17,26.36a2.59,2.59,0,0,0,.82,1.57c4.73,4.36,6.51,9.76,5.05,16S888.45,62.26,882.35,64c-.5.14-.84.29-.9.83a.24.24,0,0,1,0,.12c-.46,1-2.92,1.5-5.15,1-1.16-.27-1.38-1.14-1.38-2.19q0-15.4,0-30.8c0-1.77.5-2.26,2.3-2.26.75,0,1.49,0,2.24,0,1,0,1.79.24,2.06,1.35a.93.93,0,0,0,1.28.63c.49-.13.1-.65,0-.94-2.32-8.56-6.4-16-13.63-21.46-9.89-7.43-22.44-6.91-31.72,1.21-6.33,5.54-10.08,12.59-12.18,20.61C825.23,32.35,825.11,32.6,825.31,32.88Z"/><path class="cls-16" d="M853.16,110.77c-5.5,0-11,0-16.52,0-1.09,0-1.15-.37-.89-1.24a5,5,0,0,1,5-3.81c2.86,0,5.71,0,8.57,0,.89,0,1.34-.18,1.2-1.15a4.68,4.68,0,0,1,0-1.24c.24-2.3,0-4-2.57-5.3S844.2,94,844.07,91c0-.6-.05-1-.77-1.3-1.25-.49-.66-1.71-.75-2.63a.93.93,0,0,1,1-1.13c.62,0,.49-.44.5-.78,0-1.37,0-2.74,0-4.1,0-.58-.09-1-.76-1a.73.73,0,0,1-.74-.82.76.76,0,0,1,.86-.84c.7,0,.67-.45.67-.91,0-4.39,0-8.78,0-13.16-.06-6.74,5.35-11.13,11.8-9.54a9.17,9.17,0,0,1,6.67,8.87c0,4.51,0,9,0,13.54,0,.63-.11,1.25.87,1.24.41,0,.63.33.64.77s-.18.79-.61.81c-1,0-.9.73-.89,1.4,0,1,0,2.07,0,3.1,0,.71-.21,1.45,1,1.57.7.08.57.91.55,1.48,0,.78.31,1.79-.75,2.14-.73.25-.74.69-.78,1.3a8.93,8.93,0,0,1-5.57,8.12,1.23,1.23,0,0,0-.9,1.37c.05,1.41.07,2.82,0,4.23,0,.85.3,1,1.08,1,2.89,0,5.79,0,8.69,0a5,5,0,0,1,5,3.82c.26.89.17,1.25-.9,1.24-5.59,0-11.18,0-16.77,0Z"/><path d="M837.65,40.32V52.1h-.23V40.3Z"/><path d="M842.48,40.24V52.11h-.21V40.24Z"/><path d="M868.66,52V40.32h.24V52Z"/><ellipse cx="856.76" cy="46.17" rx="0.19" ry="7.68"/><path d="M866.22,51.29V41.07h.21V51.27Z"/><path d="M847,51.25V41.18h.24V51.28Z"/><path d="M849.4,50.1V42.25h.25V50.1Z"/><path d="M854.47,42.3v7.76h-.24V42.3Z"/><path d="M852.07,43.58v5.19h-.24V43.59Z"/><path d="M863.82,48.64V43.71h.26v4.94Z"/><path d="M859,48.55V43.8h.2v4.76Z"/><path d="M835.28,44.1v4.2H835V44.09Z"/><path d="M839.83,48.28V44.09h.24V48.3Z"/><path d="M871.2,47.88a6.61,6.61,0,0,1-.05-3.42A6.31,6.31,0,0,1,871.2,47.88Z"/><path d="M861.67,47.8a4.23,4.23,0,0,1,0-3.24Z"/><path d="M873.57,47.77a5.87,5.87,0,0,1,0-3.14A5.5,5.5,0,0,1,873.57,47.77Z"/><path d="M844.75,47.8a7.53,7.53,0,0,1,0-3.24A5.76,5.76,0,0,1,844.75,47.8Z"/><line class="cls-17" x1="847.26" y1="56.64" x2="847.26" y2="98.06"/><line class="cls-17" x1="851.83" y1="54.56" x2="851.83" y2="106.06"/><line class="cls-17" x1="854.85" y1="54.76" x2="854.85" y2="106.08"/><line class="cls-17" x1="859.34" y1="56.64" x2="859.34" y2="97.64"/><line class="cls-17" x1="844.05" y1="64.32" x2="862.52" y2="64.32"/><line class="cls-17" x1="844.05" y1="68.32" x2="862.52" y2="68.32"/><line class="cls-17" x1="844.05" y1="72.32" x2="862.52" y2="72.32"/><line class="cls-17" x1="844.05" y1="76.32" x2="862.52" y2="76.32"/><line class="cls-17" x1="844.05" y1="80.32" x2="862.52" y2="80.32"/><line class="cls-17" x1="844.05" y1="84.32" x2="862.52" y2="84.32"/><line class="cls-17" x1="842.29" y1="88.32" x2="864.27" y2="88.32"/><line class="cls-17" x1="844.05" y1="92.32" x2="862.52" y2="92.32"/><line class="cls-17" x1="849.55" y1="105.75" x2="856.5" y2="105.75"/><path d="M1191,59.66v-21c0-.29,0-.58,0-.87a.35.35,0,0,1,.33-.36c.23,0,.32.16.35.34a4.84,4.84,0,0,1,0,.76l0,42.43v.54c0,.28-.09.53-.4.55s-.39-.27-.39-.53c0-.47,0-.94,0-1.41V59.66Z"/><path d="M1189,59.79q0-12.69,0-25.37c0-.39-.24-1.08.29-1.1s.36.67.36,1.06q0,25.35.07,50.72a.4.4,0,0,1,0,.11c-.08.38.23,1-.42,1s-.34-.63-.34-1c0-3.27,0-6.53,0-9.8V59.79Z"/><path d="M1193,59.78V42.92c0-.29,0-.59,0-.87s.12-.44.4-.42.36.21.36.45v.65l0,33.83c0,.15,0,.3,0,.44,0,.33.11.84-.44.82s-.38-.53-.38-.86q0-8.59,0-17.18Z"/><path d="M1103.43,59.78V42.69c0-.33,0-.65,0-1s.11-.36.32-.36.3.18.32.36a8.44,8.44,0,0,1,0,.87q0,17.27.07,34.52a3.51,3.51,0,0,1,0,.65c0,.22-.12.44-.39.44s-.37-.21-.38-.44,0-.51,0-.76V59.78Z"/><path d="M1105.4,59.67V44a4.87,4.87,0,0,1,0-.54c0-.26,0-.56.39-.53s.35.31.36.58,0,.43,0,.65l0,31.21c0,.22,0,.44,0,.65s-.1.53-.43.51-.37-.29-.38-.55,0-.51,0-.76V59.67Z"/><path d="M1185,59.78V43.14a3.25,3.25,0,0,1,0-.54c0-.36-.17-1,.36-1s.32.64.32,1q0,14.19,0,28.39c0,2,0,3.91,0,5.87,0,.35.18.94-.41.91s-.4-.59-.4-1c0-5.69,0-11.38,0-17.07Z"/><path d="M1107.38,59.67q0-6.64,0-13.28c0-.34-.13-.86.39-.85s.37.53.37.86q0,13.27,0,26.56c0,.35.18.94-.41.93s-.4-.59-.4-.94q0-6.65,0-13.28Z"/><path d="M1194.94,59.67V47.38c0-.36,0-.73,0-1.09s.11-.44.36-.47.36.21.38.43,0,.44,0,.66l0,25.55c0,.22,0,.43,0,.65s-.06.54-.39.55-.41-.23-.42-.51,0-.51,0-.76V59.67Z"/><path d="M1161.92,59.81c0,4.28,0,8.56,0,12.83,0,.48.35,1.36-.36,1.38s-.4-.86-.4-1.32c0-8.63,0-17.26,0-25.89,0-.29,0-.59,0-.87s0-.46.33-.48.34.21.37.43a1.84,1.84,0,0,1,0,.33V59.81Z"/><path d="M1187,59.7V44.46q0-.43,0-.87c0-.14.06-.28.23-.31a.31.31,0,0,1,.38.29,8.1,8.1,0,0,1,.06.86q0,15.34.07,30.7a1.61,1.61,0,0,1,0,.22c0,.36.13.93-.46.91s-.35-.56-.35-.88q0-6.91,0-13.83V59.7Z"/><path d="M1102.2,59.67V75.45c0,.22,0,.44,0,.65s-.1.44-.38.44-.36-.2-.38-.43,0-.51,0-.77q0-15.61.06-31.23c0-.41-.3-1.14.37-1.14.46,0,.29.73.29,1.13q0,7.78,0,15.57Z"/><path d="M1159.9,59.66c0,5.15,0,10.3,0,15.45,0,.42.28,1.15-.36,1.16s-.39-.73-.39-1.12q0-15.45,0-30.9c0-.15,0-.29,0-.44s0-.65.38-.64.29.37.29.61c0,1,0,2,0,3V59.66Z"/><path d="M1183.77,59.67c0,4.23,0,8.47,0,12.71,0,.29,0,.58,0,.87s-.11.44-.39.41a.38.38,0,0,1-.34-.36,6.44,6.44,0,0,1,0-.76q0-12.72.08-25.44c0-.42-.24-1.19.32-1.2s.32.76.33,1.16c0,4.2,0,8.4,0,12.61Z"/><path d="M1163.12,59.79q0-5.59,0-11.2c0-.33-.14-.88.34-.88s.4.57.4.93q0,11.09,0,22.18c0,.22,0,.43,0,.65a.35.35,0,0,1-.35.34.37.37,0,0,1-.42-.39c0-.25,0-.5,0-.76V59.79Z"/><path d="M1097.45,59.67V49.44a4.75,4.75,0,0,1,0-.65c0-.27,0-.67.38-.64s.31.36.32.62v.55q0,10.44,0,20.89c0,.22,0,.43,0,.65s-.08.44-.37.44-.37-.2-.39-.42a4.83,4.83,0,0,1,0-.76V59.67Z"/><path d="M1155.94,59.76V71c0,.34.12.85-.41.84s-.42-.49-.42-.84c.06-5.93-.11-11.87.12-17.81,0-1.51,0-3,0-4.55,0-.33-.14-.88.35-.88s.35.55.35.87c0,3.73,0,7.45,0,11.18Z"/><path d="M1100.2,59.73V72.67a8.43,8.43,0,0,1,0,.87.37.37,0,0,1-.43.37c-.23,0-.28-.21-.3-.39a8.33,8.33,0,0,1,0-.87l.06-26a1.62,1.62,0,0,1,0-.22c0-.33-.13-.9.34-.89s.32.57.32.91q0,6.63,0,13.26Z"/><path d="M1082.29,59.73c0,3.26,0,6.53,0,9.79,0,.32.19.84-.35.87s-.44-.49-.44-.83q0-9.84,0-19.67c0-.31-.08-.78.36-.78s.36.53.36.84c0,3.26,0,6.52,0,9.78Z"/><path d="M1181.79,59.78c0,2.91,0,5.81,0,8.71,0,.35.21,1-.4.93s-.38-.6-.38-1q0-8.71,0-17.42a3.13,3.13,0,0,1,.07-.75.42.42,0,0,1,.32-.22.39.39,0,0,1,.29.25,4.1,4.1,0,0,1,.06.86v8.6Z"/><path d="M1153.94,59.75c0,2.9,0,5.8,0,8.7,0,.38.25,1-.38,1.06s-.43-.64-.43-1q0-8.2.07-16.39a8,8,0,0,1,0-1c.06-.42-.27-1.14.42-1.14s.33.7.34,1.08c0,2.9,0,5.79,0,8.68Z"/><path d="M1197.71,59.78c0,2.93,0,5.87,0,8.8,0,.32.17.85-.36.87s-.42-.5-.42-.84q0-8.85.06-17.7c0-.32-.15-.87.39-.83s.3.58.3.9q0,4.41,0,8.8Z"/><path d="M1096.21,59.74c0,2.61,0,5.22,0,7.83,0,.37.28,1.07-.33,1.07s-.42-.71-.43-1.13q0-7.83,0-15.67c0-.39-.2-1.05.4-1.05s.3.64.31,1c0,2.65,0,5.3,0,8Z"/><path d="M1079.51,59.67V52.39a7.93,7.93,0,0,1,.06-1,.38.38,0,0,1,.37-.34c.22,0,.31.17.33.35a4.85,4.85,0,0,1,0,.66q0,7.61,0,15.22a6.37,6.37,0,0,1,0,.76.39.39,0,0,1-.77,0c0-.33,0-.65,0-1v-7.4Z"/><path d="M1110.15,59.76c0,2.54,0,5.07,0,7.61,0,.38.24,1-.41,1s-.37-.68-.37-1.07q0-7.6,0-15.23a3.09,3.09,0,0,1,0-.43c0-.26.07-.56.4-.54s.34.33.34.59c0,1.16,0,2.32,0,3.48v4.57Z"/><path d="M1130.06,59.79V68.7c0,.29,0,.58,0,.87s0,.66-.36.67-.39-.41-.42-.72a4.87,4.87,0,0,1,0-.54q0-9.35,0-18.69a1.82,1.82,0,0,1,0-.33c0-.28-.11-.77.36-.74s.32.5.32.79c0,3.26,0,6.52,0,9.78Z"/><path d="M1112.12,59.78c0,2.68,0,5.37,0,8,0,.31.2.85-.38.83s-.39-.53-.39-.85c0-3.16.07-6.31.08-9.46,0-2,0-4,0-6,0-.43,0-.87.07-1.3,0-.18.14-.37.36-.31a.49.49,0,0,1,.25.32,6.27,6.27,0,0,1,0,.87v7.83Z"/><path d="M1083.51,59.68c0-2.4,0-4.79,0-7.19,0-.33-.12-.87.36-.86s.36.55.36.89q0,7.23,0,14.47c0,.32.17.84-.4.83s-.41-.51-.41-.85q0-3.64,0-7.29Z"/><path d="M1167.86,59.78c0,2.21,0,4.42,0,6.63,0,.32.18.84-.37.85s-.42-.5-.42-.84q0-6.68,0-13.36c0-.33-.13-.85.42-.82s.32.5.32.8c0,2.24,0,4.49,0,6.74Z"/><path d="M1151.23,59.54c0-2.29,0-4.57,0-6.85,0-.2,0-.39.2-.45s.34.18.4.37a8.3,8.3,0,0,1,.09,2.17c0,3.84,0,7.69,0,11.53,0,.36.2,1-.4.94s-.39-.6-.39-1c0-2.25,0-4.5,0-6.75Z"/><path d="M1179.8,59.78c0,2,0,4,0,6.08,0,.33.14.85-.4.83s-.38-.52-.38-.85q0-6.08,0-12.16c0-.33-.13-.86.38-.85s.35.55.35.87c0,2,0,4.06,0,6.08Z"/><path d="M1165.11,59.78c0-2,0-4.06,0-6.09,0-.31-.09-.77.36-.79s.38.44.38.75q0,6.09,0,12.19c0,.33.13.85-.42.81s-.35-.55-.35-.88c0-2,0-4,0-6Z"/><path d="M1131.3,59.79c0-2.32,0-4.63,0-6.95,0-.35-.19-1,.36-1s.34.57.34.9q0,7,.06,14c0,.34.09.84-.44.82s-.35-.54-.36-.86c0-2.31,0-4.63,0-6.94Z"/><path d="M1157.19,59.78V52.4c0-.29,0-.58,0-.86s.06-.3.23-.33a.31.31,0,0,1,.35.31,8.44,8.44,0,0,1,0,.87l0,14.66c0,.28,0,.57,0,.86a.35.35,0,0,1-.34.36c-.21,0-.31-.15-.34-.35a4.9,4.9,0,0,1,0-.54v-7.6Z"/><path d="M1134.08,59.79c0,1.81,0,3.62,0,5.43,0,.33.12.83-.39.87s-.41-.49-.42-.81q0-5.53,0-11.06c0-.33-.12-.87.38-.85s.36.55.36.89c0,1.84,0,3.69,0,5.53Z"/><path d="M1094.25,59.78c0,1.77,0,3.55,0,5.33,0,.36.18.93-.42.93s-.38-.53-.38-.87q0-5.45,0-10.88c0-.34-.13-.87.4-.84s.34.56.34.88c0,1.82,0,3.63,0,5.45Z"/><path d="M1123.31,59.67c0-1.67,0-3.34,0-5,0-.33-.17-.85.34-.9s.4.5.4.82c0,3.45,0,6.89,0,10.34,0,.33.12.84-.41.83s-.39-.52-.4-.86c0-1.74,0-3.48,0-5.23Z"/><path d="M1128.05,59.74c0,1.78,0,3.55,0,5.32,0,.31.13.76-.32.8s-.48-.43-.48-.78q0-5.37.07-10.74c0-.3-.07-.76.4-.74s.29.44.29.72c0,1.81,0,3.61,0,5.42Z"/><path d="M1150,59.74c0,1.48,0,3,0,4.44,0,.33.12.83-.42.82s-.37-.46-.37-.77c0-3,0-6,0-9,0-.31-.1-.78.34-.78s.39.5.4.83c0,1.48,0,3,0,4.44Z"/><path d="M1143.27,59.68c0-2,0-4,0-6,0-.28-.15-.77.34-.76s.3.44.3.72q0,6,0,12c0,.3.09.78-.36.78s-.37-.53-.37-.85c0-2,0-4,0-6Z"/><path d="M1136,59.76v4.33c0,.35.09.83-.43.82s-.35-.47-.35-.78c0-2.85,0-5.7,0-8.56v-.11c0-.33-.1-.84.42-.82s.32.49.32.79c0,1.44,0,2.89,0,4.33Z"/><path d="M1177.85,59.78c0,1.38,0,2.75,0,4.13,0,.33,0,.72-.46.7s-.37-.37-.37-.66l0-8.47c0-.28,0-.65.41-.61s.36.39.36.68v4.23Z"/><path d="M1199.7,59.78c0,1.52,0,3,0,4.56,0,.33.18.84-.35.88s-.44-.48-.44-.82q0-4.73.06-9.45c0-.28,0-.7.33-.7s.36.46.36.75c0,1.59,0,3.19,0,4.78Z"/><path d="M1122.09,59.74c0,1.3,0,2.6,0,3.91,0,.27,0,.64-.4.62s-.36-.33-.36-.58q0-4,0-7.92c0-.26.06-.56.4-.53s.33.33.33.59c0,1.3,0,2.6,0,3.91Z"/><path d="M1169.13,59.75c0-1.56,0-3.11,0-4.67,0-.23,0-.58.29-.61s.39.34.39.62c0,3.08,0,6.15,0,9.23,0,.27.07.66-.34.68s-.44-.39-.45-.7c0-1.52,0-3,0-4.55Z"/><path d="M1126,59.77c0,1.34,0,2.68,0,4,0,.25,0,.56-.32.58s-.43-.29-.43-.6c0-2.67,0-5.33,0-8,0-.27,0-.67.37-.66s.35.39.35.67c0,1.33,0,2.67,0,4Z"/><path d="M1085.55,59.67c0-1.59,0-3.19,0-4.78,0-.27-.06-.68.33-.69s.32.41.32.68q0,4.83,0,9.66c0,.32,0,.78-.37.78s-.38-.45-.39-.76V59.67Z"/><path d="M1089.49,59.78c0-1.19,0-2.39,0-3.58,0-.24,0-.56.33-.57s.39.28.39.53c0,2.39,0,4.77,0,7.16,0,.26-.07.54-.39.55s-.41-.34-.41-.62c0-1.16,0-2.31,0-3.47Z"/><path d="M1146,59.84v4c0,.33,0,.75-.38.78s-.43-.47-.43-.8c0-2.71,0-5.42,0-8.13,0-.29-.13-.79.29-.81s.39.51.4.84c0,1.37,0,2.74,0,4.11Z"/><path d="M1115.39,59.78c0-1.51,0-3,0-4.55,0-.28-.09-.68.29-.72s.4.35.4.63q0,4.57.05,9.13c0,.28,0,.66-.36.68s-.42-.4-.42-.71c0-1.49,0-3,0-4.46Z"/><path d="M1142,59.89c0,1.34,0,2.68,0,4,0,.3.08.74-.4.74s-.35-.36-.35-.66c0-2.79,0-5.57,0-8.35,0-.28-.14-.78.33-.77s.33.49.33.79c0,1.41,0,2.82,0,4.23Z"/><path d="M1078.31,59.68v3.25c0,.3,0,.62-.43.6s-.35-.3-.35-.56c0-2.13,0-4.27,0-6.4,0-.28,0-.66.4-.62s.33.41.34.69v3Z"/><path d="M1175.09,59.71v-3c0-.25,0-.59.28-.62s.4.35.4.62c0,2.06,0,4.11.07,6.17,0,.3,0,.62-.45.59s-.32-.34-.32-.6c0-1,0-2.09,0-3.13Z"/><path d="M1138,59.6v2.82c0,.29,0,.66-.34.69s-.43-.31-.44-.62c0-2,0-3.91,0-5.86,0-.27,0-.53.4-.52s.34.32.34.56c0,1,0,2,0,2.93Z"/><path d="M1118.07,59.79c0,1.15,0,2.31,0,3.47,0,.31,0,.64-.41.61s-.32-.35-.32-.6l0-7.07c0-.26,0-.57.34-.57s.33.33.33.57c0,1.2,0,2.39,0,3.59Z"/><path d="M1201,59.67c0-1.12,0-2.24,0-3.36,0-.24,0-.57.31-.59s.37.31.37.55c0,2.32,0,4.63.07,6.95,0,.26-.06.54-.38.55s-.41-.34-.41-.62c0-1.16,0-2.32,0-3.48Z"/><path d="M1114.09,59.72c0,.94,0,1.87,0,2.81,0,.28,0,.65-.37.65s-.4-.35-.4-.64c0-1.87,0-3.74,0-5.61,0-.26,0-.66.41-.62s.3.35.3.6c0,.94,0,1.87,0,2.81Z"/><path d="M1148,59.7c0,.83,0,1.66,0,2.49,0,.24,0,.56-.36.57s-.41-.34-.41-.63c0-1.58,0-3.17.07-4.76,0-.27,0-.67.39-.64s.32.42.32.7Z"/><path d="M1119.35,59.68V57.3c0-.25,0-.56.32-.58s.41.24.41.51c0,1.66,0,3.31,0,5,0,.23-.08.55-.41.54s-.34-.33-.35-.57c0-.83,0-1.66,0-2.49Z"/><path d="M1206.9,59.78V57.61c0-.26,0-.55.36-.57s.39.25.39.52l0,4.34c0,.26,0,.54-.37.55s-.43-.31-.43-.61c0-.69,0-1.37,0-2.06Z"/><path d="M1074.35,59.77c0,.83,0,1.67,0,2.5,0,.23-.06.53-.41.53s-.38-.29-.38-.54c0-1.7,0-3.4,0-5.09,0-.24.08-.46.35-.47s.32.26.32.47c0,.87,0,1.74,0,2.6Z"/><path d="M1087.51,59.67c0-.75,0-1.51,0-2.27,0-.25,0-.57.32-.61s.36.3.37.53c0,1.62.07,3.25.08,4.88,0,.23,0,.55-.36.58s-.43-.32-.44-.61c0-.83,0-1.66,0-2.5Z"/><path d="M1204.94,59.75c0-.69,0-1.38,0-2.06,0-.23.12-.44.39-.42s.3.21.3.39c0,1.37,0,2.74,0,4.12,0,.23-.1.44-.37.45s-.39-.26-.39-.53v-2Z"/><path d="M1203,59.72v-2.6c0-.23.07-.47.32-.49s.35.23.35.45c0,1.77,0,3.54.05,5.31,0,.22-.08.44-.36.45s-.38-.27-.39-.52c0-.87,0-1.73,0-2.6Z"/><path d="M1092.24,59.72v1.85c0,.28-.08.52-.4.52a.39.39,0,0,1-.38-.44c0-1.27,0-2.53,0-3.8,0-.22.07-.45.37-.42a.4.4,0,0,1,.37.45c0,.61,0,1.23,0,1.84Z"/><path d="M1209.66,59.81c0,.51,0,1,0,1.52,0,.26,0,.55-.35.58s-.43-.22-.44-.49c0-1.13,0-2.25,0-3.37,0-.23.1-.46.34-.48s.41.24.41.51c0,.58,0,1.15,0,1.73Z"/><path d="M1173.1,59.78c0-.75,0-1.51,0-2.27,0-.2,0-.46.28-.5s.38.19.39.4c0,1.55.07,3.1.08,4.64,0,.26-.14.51-.46.48s-.32-.26-.33-.48V59.78Z"/><path d="M1140,59.77c0,.54,0,1.08,0,1.62,0,.27-.06.53-.4.52s-.37-.23-.37-.45c0-1.15,0-2.3,0-3.46,0-.21.12-.45.38-.43s.33.25.33.47c0,.58,0,1.15,0,1.73Z"/><path d="M1171.11,59.71c0-.72,0-1.45,0-2.17,0-.22,0-.48.31-.5s.35.23.35.44c0,1.49,0,3,0,4.46,0,.25,0,.55-.39.52s-.38-.31-.38-.57V59.71Z"/><path d="M1071.62,59.78c0-.72,0-1.44,0-2.16,0-.25,0-.55.37-.53s.28.29.28.51c0,1.4,0,2.81,0,4.21,0,.25,0,.56-.35.57s-.37-.29-.37-.54c0-.69,0-1.37,0-2.06Z"/><path d="M1075.55,59.72a.74.74,0,0,1,0-.21c.17-.53-.39-1.53.41-1.52s.28,1,.37,1.58a9.35,9.35,0,0,1,0,1.3c0,.32,0,.71-.45.7s-.36-.38-.36-.66,0-.79,0-1.19Z"/><path d="M1070.32,59.73c0,.47,0,.93,0,1.4,0,.25,0,.54-.34.57s-.42-.25-.42-.5c0-1,0-2,.07-3,0-.18,0-.38.29-.38s.37.17.37.42v1.51Z"/><path d="M1064.37,59.84c-.23.4.46,1.4-.42,1.41-.69,0-.25-.94-.34-1.46a3.62,3.62,0,0,1,0-.87c0-.3-.11-.77.34-.77s.39.49.41.83S1064.37,59.49,1064.37,59.84Z"/><path d="M1211.67,59.71c-.17.45.26,1.26-.4,1.28s-.39-.79-.39-1.23-.28-1.28.36-1.29S1211.45,59.3,1211.67,59.71Z"/><path d="M1068.37,59.75c-.13.45.25,1.2-.37,1.22s-.42-.78-.42-1.22-.22-1.19.35-1.19C1068.69,58.56,1068.15,59.37,1068.37,59.75Z"/><path d="M1061.62,59.81c0-.27,0-.45,0-.63s0-.65.42-.62.34.33.36.59a2.44,2.44,0,0,1,0,.54c-.06.45.3,1.23-.43,1.22S1061.71,60.14,1061.62,59.81Z"/><path d="M1066.36,59.78c-.15.31.32,1-.38,1s-.33-.71-.4-1.12a1.82,1.82,0,0,1,0-.33c0-.34-.07-.83.46-.79s.31.48.33.79Z"/><path d="M1213.63,59.75c-.06.29.13.75-.33.78s-.46-.44-.44-.78-.09-.82.44-.79S1213.55,59.47,1213.63,59.75Z"/></g></g></svg>